<svg id="diagnostic_one" data-name="diagnostic one" xmlns="http://www.w3.org/2000/svg" viewBox="0 0 661.79 517.38"><rect width="661.79" height="434.64" rx="5.13" fill="#edf1ff"/><rect x="154.55" y="19.86" width="225.88" height="106.24" rx="4.79" fill="#fff"/><rect x="21.69" y="139.73" width="291.9" height="134.69" rx="4.58" fill="#fff"/><rect x="21.69" y="288.05" width="617.29" height="128.34" rx="5.44" fill="#fff"/><rect x="390" y="19.86" width="248.99" height="106.24" rx="5.44" fill="#fff"/><path d="M377.94,364.44H119.5a.2.2,0,0,1,0-.4H377.94a.2.2,0,0,1,0,.4Z" transform="translate(-69.11 -52.68)" fill="#bdd3fa"/><rect x="21.2" y="19.86" width="124.7" height="106.24" rx="5.44" fill="#fff"/><path d="M204.79,144.44h-102a.2.2,0,0,1,0-.4h102a.2.2,0,0,1,0,.4Z" transform="translate(-69.11 -52.68)" fill="#bdd3fa"/><polygon points="38.92 98.84 40.53 102.11 44.14 102.64 41.53 105.18 42.15 108.77 38.92 107.08 35.69 108.77 36.31 105.18 33.7 102.64 37.31 102.11 38.92 98.84" fill="#ff7867"/><polygon points="52.52 98.84 54.13 102.11 57.74 102.64 55.13 105.18 55.74 108.77 52.52 107.08 49.29 108.77 49.91 105.18 47.3 102.64 50.91 102.11 52.52 98.84" fill="#ff7867"/><polygon points="66.12 98.84 67.73 102.11 71.34 102.64 68.73 105.18 69.34 108.77 66.12 107.08 62.89 108.77 63.51 105.18 60.9 102.64 64.5 102.11 66.12 98.84" fill="#ff7867"/><polygon points="79.71 98.84 81.33 102.11 84.94 102.64 82.32 105.18 82.94 108.77 79.71 107.08 76.49 108.77 77.1 105.18 74.49 102.64 78.1 102.11 79.71 98.84" fill="#ff7867"/><polygon points="93.31 98.84 94.92 102.11 98.53 102.64 95.92 105.18 96.54 108.77 93.31 107.08 90.08 108.77 90.7 105.18 88.09 102.64 91.7 102.11 93.31 98.84" fill="#ff7867"/><path d="M100.25,111.46a22.58,22.58,0,0,0,7.75,17,20.78,20.78,0,0,0,2.87,2.14,22.64,22.64,0,0,0,25.3-37.52,21.35,21.35,0,0,0-3.7-2.17,22.62,22.62,0,0,0-32.22,20.5Z" transform="translate(-69.11 -52.68)" fill="#bdd3fa"/><path d="M128.41,119.05v-.37S129,118.92,128.41,119.05Z" transform="translate(-69.11 -52.68)" fill="#ffcbc5"/><path d="M108,128.51a20.78,20.78,0,0,0,2.87,2.14l23.71.16-6.29-5.27a2,2,0,0,0,0-.86l.07-5v-.07l0-.61A19.18,19.18,0,0,1,124,119c-6.55-.52-9.44-7.53-9.78-8.39,0,0,0,0,0-.06s0,0,0,0V111l0,2.36v.12h0l0,4.39,0,2Z" transform="translate(-69.11 -52.68)" fill="#ffcbc5"/><path d="M110.85,101.61a4.45,4.45,0,0,0,1.28,3.21.62.62,0,0,0,.15.19c.41.44.83.79,1.09,1l.24.18.11.09,0,3.37s.18.5.54,1.29a.26.26,0,0,1,0,.08,17.91,17.91,0,0,0,6,7.35,12.66,12.66,0,0,0,1.14.63c.23.12.45.22.67.31a10,10,0,0,0,6.35.31.5.5,0,0,0,.13,0c8.24-2.23,6.32-17.61,5.17-23.89-.29-1.63-.54-2.65-.54-2.65a12.57,12.57,0,0,0-.68-2.12,22.55,22.55,0,0,0-17-.88l-.37,11a5.39,5.39,0,0,0-.56-.23.47.47,0,0,0-.15-.06l-.38-.13a.9.9,0,0,0-.33-.09.76.76,0,0,0-.2-.06l-.13,0C112.24,100.18,111,100.22,110.85,101.61Z" transform="translate(-69.11 -52.68)" fill="#ffcbc5"/><path d="M108.39,103.8c1.83,2,.61,2.46,1.45,5.77a5.58,5.58,0,0,0,4.36,3.88v-.12a17.43,17.43,0,0,0,0-2.28v-.47s0,0,0-.06a27.36,27.36,0,0,0-.52-4.21l-.11-.09-.24-.18-.22-.19a5.35,5.35,0,0,1-.87-.84.62.62,0,0,1-.15-.19,5.22,5.22,0,0,1-1.07-2.81,1.51,1.51,0,0,1,1.49-1.65,5,5,0,0,1,.78.07l.13,0a.76.76,0,0,1,.2.06.9.9,0,0,1,.33.09l.38.13a.47.47,0,0,1,.15.06,5.39,5.39,0,0,1,.56.23l2-3.18c1.36-2.62,3.89-3.25,6.64-3.22a29.07,29.07,0,0,1,7,.88,6.68,6.68,0,0,0,2.93.22,2.9,2.9,0,0,0,1.93-1.29,4.2,4.2,0,0,0,.55-1.31,21.35,21.35,0,0,0-3.7-2.17,22.68,22.68,0,0,0-22.37,1.81,2,2,0,0,1-1.63,1.62C105.73,94.89,106.58,101.87,108.39,103.8Z" transform="translate(-69.11 -52.68)" fill="#6c60b7"/><path d="M128.52,119.61s-3,1.5-7.15-.58a25.87,25.87,0,0,1-7.17-5.58l0,4.4S122.54,124.51,128.52,119.61Z" transform="translate(-69.11 -52.68)" fill="#ffb6ad"/><path d="M111.84,123.1l2.4,3.77a8.34,8.34,0,0,0,7,3.85h2.07a4.78,4.78,0,0,0,4.72-3.8l.29-1.39,6.23,5.27h.06v0a22.6,22.6,0,0,1-23.71-.2,34.8,34.8,0,0,1-2.87-2.14Z" transform="translate(-69.11 -52.68)" fill="#545ed3"/><rect x="85.45" y="42.92" width="53.26" height="5.54" rx="2.43" fill="#bdd3fa"/><path d="M190.14,109.82H156a.5.5,0,0,1-.5-.5.5.5,0,0,1,.5-.5h34.11a.5.5,0,0,1,.5.5A.5.5,0,0,1,190.14,109.82Z" transform="translate(-69.11 -52.68)" fill="#97c2ff"/><path d="M181.18,117.83H156a.5.5,0,0,1-.5-.5.5.5,0,0,1,.5-.5h25.15a.5.5,0,0,1,.5.5A.5.5,0,0,1,181.18,117.83Z" transform="translate(-69.11 -52.68)" fill="#97c2ff"/><path d="M168.6,125.84H156a.5.5,0,0,1-.5-.5.5.5,0,0,1,.5-.5H168.6a.5.5,0,0,1,.5.5A.5.5,0,0,1,168.6,125.84Z" transform="translate(-69.11 -52.68)" fill="#97c2ff"/><path d="M261.72,96.57a3.76,3.76,0,0,0-.25-.54,6.88,6.88,0,0,0-2.39-2.69,6.22,6.22,0,0,0-3.33-1,6.59,6.59,0,0,0-5.31,2.61,6.54,6.54,0,0,0-5.19-2.83,6.32,6.32,0,0,0-3.37.91,7.59,7.59,0,0,0-3.27,8.29,7.86,7.86,0,0,0,.61,1.63c1,2,4.24,4.95,6.92,7.21l.47.39,1.73,1.41.91.71a1.4,1.4,0,0,0,.83.3,1.37,1.37,0,0,0,.84-.26l1-.75c1.52-1.12,3.7-2.79,5.62-4.47h0a20.45,20.45,0,0,0,3.67-3.94s.05-.1.08-.14a7.75,7.75,0,0,0,.79-2.08A7.85,7.85,0,0,0,261.72,96.57Z" transform="translate(-69.11 -52.68)" fill="#ff7867"/><path d="M349.46,161.36h0A.49.49,0,0,1,349,161l-13-58.34-15.78,43.25a.48.48,0,0,1-.46.33.55.55,0,0,1-.47-.31l-10.06-25.11-7.36,5.49a.52.52,0,0,1-.38.1.5.5,0,0,1-.33-.2l-3.8-5.28L290.48,132a.5.5,0,0,1-.43.24H261a.5.5,0,0,1-.5-.5.5.5,0,0,1,.5-.5h28.81l7.13-11.53a.52.52,0,0,1,.41-.24.51.51,0,0,1,.42.21l3.95,5.47,7.47-5.58a.53.53,0,0,1,.44-.08.48.48,0,0,1,.32.3l9.82,24.49,15.92-43.63a.49.49,0,0,1,.5-.32.5.5,0,0,1,.46.39l13,58.48,12.12-28.57a.54.54,0,0,1,.34-.29.51.51,0,0,1,.44.1l6.71,5.31,13.72-41.14a.49.49,0,0,1,.44-.35.5.5,0,0,1,.49.3l16.64,36.85,9.79-11.76a.57.57,0,0,1,.43-.18.51.51,0,0,1,.39.26l6.52,11.51h12.46a.5.5,0,0,1,.5.5.5.5,0,0,1-.5.5H417.34a.49.49,0,0,1-.43-.26l-6.31-11.13-9.84,11.81a.51.51,0,0,1-.46.18.48.48,0,0,1-.38-.29L383.47,96.16l-13.54,40.62a.5.5,0,0,1-.33.32.52.52,0,0,1-.45-.09l-6.76-5.35-12.47,29.4A.52.52,0,0,1,349.46,161.36Z" transform="translate(-69.11 -52.68)" fill="#97c2ff"/><path d="M566.9,99.73H519.18A2.77,2.77,0,0,1,516.41,97h0a2.77,2.77,0,0,1,2.77-2.77H566.9A2.77,2.77,0,0,1,569.67,97h0A2.77,2.77,0,0,1,566.9,99.73Z" transform="translate(-69.11 -52.68)" fill="#bdd3fa"/><path d="M540.27,99.73H519.18A2.77,2.77,0,0,1,516.41,97h0a2.77,2.77,0,0,1,2.77-2.77h21.09A2.77,2.77,0,0,1,543,97h0A2.77,2.77,0,0,1,540.27,99.73Z" transform="translate(-69.11 -52.68)" fill="#ff7867"/><path d="M566.9,125.71H519.18a2.77,2.77,0,0,1-2.77-2.77h0a2.77,2.77,0,0,1,2.77-2.77H566.9a2.77,2.77,0,0,1,2.77,2.77h0A2.77,2.77,0,0,1,566.9,125.71Z" transform="translate(-69.11 -52.68)" fill="#bdd3fa"/><path d="M560.71,125.71H519.18a2.77,2.77,0,0,1-2.77-2.77h0a2.77,2.77,0,0,1,2.77-2.77h41.53a2.77,2.77,0,0,1,2.77,2.77h0A2.77,2.77,0,0,1,560.71,125.71Z" transform="translate(-69.11 -52.68)" fill="#ff7867"/><path d="M566.9,154.29H519.18a2.77,2.77,0,0,1-2.77-2.77h0a2.77,2.77,0,0,1,2.77-2.77H566.9a2.77,2.77,0,0,1,2.77,2.77h0A2.77,2.77,0,0,1,566.9,154.29Z" transform="translate(-69.11 -52.68)" fill="#bdd3fa"/><path d="M521.52,154.29h-2.34a2.77,2.77,0,0,1-2.77-2.77h0a2.77,2.77,0,0,1,2.77-2.77h2.34a2.77,2.77,0,0,1,2.77,2.77h0A2.77,2.77,0,0,1,521.52,154.29Z" transform="translate(-69.11 -52.68)" fill="#ff7867"/><path d="M487,97.26l.4-3.86h4v.91h-3.13L488,96.42a2.7,2.7,0,0,1,.53-.23,2.49,2.49,0,0,1,.76-.11,2.32,2.32,0,0,1,1,.19,2,2,0,0,1,.72.52,2.29,2.29,0,0,1,.46.81,3.29,3.29,0,0,1,.16,1.07,3.42,3.42,0,0,1-.15,1,2.31,2.31,0,0,1-.46.81,2,2,0,0,1-.76.54,2.78,2.78,0,0,1-1.08.19,2.9,2.9,0,0,1-.89-.13,2.5,2.5,0,0,1-.74-.39,2.22,2.22,0,0,1-.53-.67,2.51,2.51,0,0,1-.25-1h.93a1.53,1.53,0,0,0,.47,1,1.44,1.44,0,0,0,1,.34,1.52,1.52,0,0,0,.62-.12,1.31,1.31,0,0,0,.46-.35,1.65,1.65,0,0,0,.29-.56,2.74,2.74,0,0,0,.1-.73,2,2,0,0,0-.11-.67,1.45,1.45,0,0,0-.29-.55,1.48,1.48,0,0,0-.49-.36,1.53,1.53,0,0,0-.66-.14,2.52,2.52,0,0,0-.43,0,1.15,1.15,0,0,0-.33.1,1.35,1.35,0,0,0-.26.15l-.25.21Z" transform="translate(-69.11 -52.68)" fill="#bdd3fa"/><path d="M497.54,97.84a6.18,6.18,0,0,1-.17,1.6,2.84,2.84,0,0,1-.48,1,1.81,1.81,0,0,1-.77.58,3.09,3.09,0,0,1-2,0,1.81,1.81,0,0,1-.77-.58,3,3,0,0,1-.5-1,6.65,6.65,0,0,1-.17-1.6V96.66a6.53,6.53,0,0,1,.17-1.6,2.82,2.82,0,0,1,.49-1,1.85,1.85,0,0,1,.77-.57,3.09,3.09,0,0,1,2,0,1.79,1.79,0,0,1,.77.57,2.54,2.54,0,0,1,.49,1,6.07,6.07,0,0,1,.17,1.6Zm-1-1.35a5.93,5.93,0,0,0-.09-1.11,2.2,2.2,0,0,0-.28-.74,1.12,1.12,0,0,0-.46-.41,1.39,1.39,0,0,0-.63-.13,1.45,1.45,0,0,0-.63.13,1,1,0,0,0-.45.41,2.2,2.2,0,0,0-.28.74,5.13,5.13,0,0,0-.1,1.11V98a5.13,5.13,0,0,0,.1,1.11,2.39,2.39,0,0,0,.28.77,1.2,1.2,0,0,0,.47.43,1.47,1.47,0,0,0,1.25,0,1.25,1.25,0,0,0,.46-.43,2.39,2.39,0,0,0,.27-.77,5.93,5.93,0,0,0,.09-1.11Z" transform="translate(-69.11 -52.68)" fill="#bdd3fa"/><path d="M498.72,94.89a1.59,1.59,0,0,1,.11-.62,1.4,1.4,0,0,1,.31-.51,1.5,1.5,0,0,1,.5-.35,1.9,1.9,0,0,1,1.33,0,1.46,1.46,0,0,1,.49.35,1.4,1.4,0,0,1,.31.51,1.59,1.59,0,0,1,.11.62v.41a1.77,1.77,0,0,1-.1.61,1.49,1.49,0,0,1-.81.85,1.69,1.69,0,0,1-.66.12,1.78,1.78,0,0,1-.67-.12,1.61,1.61,0,0,1-.5-.35,1.36,1.36,0,0,1-.31-.5,1.57,1.57,0,0,1-.11-.61Zm.73.41a1.34,1.34,0,0,0,.05.35.86.86,0,0,0,.16.3.84.84,0,0,0,.27.22.92.92,0,0,0,.38.08.84.84,0,0,0,.37-.08A1,1,0,0,0,501,96a1,1,0,0,0,.15-.31,1.34,1.34,0,0,0,0-.35v-.41a1.36,1.36,0,0,0,0-.36,1,1,0,0,0-.16-.31.71.71,0,0,0-.27-.21.84.84,0,0,0-.37-.08.92.92,0,0,0-.38.08.75.75,0,0,0-.26.21,1,1,0,0,0-.16.31,1.36,1.36,0,0,0-.05.36Zm1.08,5.25-.55-.35,3.77-6,.56.35Zm2-1.31a1.84,1.84,0,0,1,.11-.62,1.69,1.69,0,0,1,.32-.51,1.52,1.52,0,0,1,.5-.34,1.74,1.74,0,0,1,1.32,0,1.52,1.52,0,0,1,.5.34,1.69,1.69,0,0,1,.32.51,1.84,1.84,0,0,1,.11.62v.41a1.8,1.8,0,0,1-.11.62,1.49,1.49,0,0,1-.81.85,1.77,1.77,0,0,1-1.33,0,1.64,1.64,0,0,1-.5-.34,1.58,1.58,0,0,1-.32-.51,1.8,1.8,0,0,1-.11-.62Zm.74.41a1.36,1.36,0,0,0,0,.36,1,1,0,0,0,.16.31.71.71,0,0,0,.27.21.89.89,0,0,0,.38.08.87.87,0,0,0,.37-.08.67.67,0,0,0,.26-.21,1,1,0,0,0,.16-.31,1.36,1.36,0,0,0,.05-.36v-.41a1,1,0,0,0-.06-.36.77.77,0,0,0-.15-.3.71.71,0,0,0-.27-.21.75.75,0,0,0-.37-.08.72.72,0,0,0-.37.08.71.71,0,0,0-.27.21,1,1,0,0,0-.16.3,1.36,1.36,0,0,0,0,.36Z" transform="translate(-69.11 -52.68)" fill="#bdd3fa"/><path d="M491.27,121.46a1.81,1.81,0,0,1-.3,1,2.13,2.13,0,0,1-.83.71,2.23,2.23,0,0,1,.95.75,1.77,1.77,0,0,1,.27.53,2,2,0,0,1,.09.61,2.13,2.13,0,0,1-.19.94,1.86,1.86,0,0,1-.52.69,2.1,2.1,0,0,1-.78.42,3,3,0,0,1-1,.15,3.08,3.08,0,0,1-1-.15,2,2,0,0,1-1.3-1.11,2.28,2.28,0,0,1-.19-.94,2,2,0,0,1,.09-.61,2,2,0,0,1,.26-.53,2.12,2.12,0,0,1,.41-.44,3.11,3.11,0,0,1,.53-.32,2,2,0,0,1-.81-.7,1.83,1.83,0,0,1-.3-1,2.37,2.37,0,0,1,.17-.9,2,2,0,0,1,.48-.66,2,2,0,0,1,.72-.42,2.67,2.67,0,0,1,.91-.14,2.73,2.73,0,0,1,.92.14,2.17,2.17,0,0,1,.72.42,1.85,1.85,0,0,1,.47.66A2.19,2.19,0,0,1,491.27,121.46Zm-.8,3.61a1.59,1.59,0,0,0-.11-.59,1.27,1.27,0,0,0-.3-.47,1.45,1.45,0,0,0-.47-.3,1.74,1.74,0,0,0-.61-.11,1.64,1.64,0,0,0-.6.11,1.23,1.23,0,0,0-.46.3,1.27,1.27,0,0,0-.3.47,1.59,1.59,0,0,0-.1.59,1.55,1.55,0,0,0,.1.59,1.06,1.06,0,0,0,.29.45,1.37,1.37,0,0,0,.47.28,1.91,1.91,0,0,0,.61.09,2,2,0,0,0,.62-.09,1.42,1.42,0,0,0,.46-.28,1.19,1.19,0,0,0,.3-.45A1.55,1.55,0,0,0,490.47,125.07Zm-.18-3.59a1.51,1.51,0,0,0-.09-.53,1.26,1.26,0,0,0-.27-.43,1.17,1.17,0,0,0-.41-.27,1.32,1.32,0,0,0-.53-.11,1.46,1.46,0,0,0-.52.1,1.15,1.15,0,0,0-.41.26,1.17,1.17,0,0,0-.27.42,1.64,1.64,0,0,0-.09.56,1.53,1.53,0,0,0,.09.54,1.29,1.29,0,0,0,.26.42,1.25,1.25,0,0,0,.41.26,1.32,1.32,0,0,0,.53.1,1.33,1.33,0,0,0,.54-.1,1.2,1.2,0,0,0,.4-.26,1.32,1.32,0,0,0,.27-.42A1.53,1.53,0,0,0,490.29,121.48Z" transform="translate(-69.11 -52.68)" fill="#bdd3fa"/><path d="M497.54,123.88a6.12,6.12,0,0,1-.17,1.6,2.69,2.69,0,0,1-.48,1,1.81,1.81,0,0,1-.77.58,2.92,2.92,0,0,1-2,0,1.81,1.81,0,0,1-.77-.58,2.85,2.85,0,0,1-.5-1,6.59,6.59,0,0,1-.17-1.6V122.7a6.44,6.44,0,0,1,.17-1.59,2.88,2.88,0,0,1,.49-1,1.83,1.83,0,0,1,.77-.56,3.09,3.09,0,0,1,2,0,1.77,1.77,0,0,1,.77.56,2.58,2.58,0,0,1,.49,1,6,6,0,0,1,.17,1.59Zm-1-1.34a5.78,5.78,0,0,0-.09-1.11,2.18,2.18,0,0,0-.28-.75,1.19,1.19,0,0,0-.46-.41,1.54,1.54,0,0,0-.63-.13,1.61,1.61,0,0,0-.63.13,1.1,1.1,0,0,0-.45.41,2.18,2.18,0,0,0-.28.75,5,5,0,0,0-.1,1.11V124a5.17,5.17,0,0,0,.1,1.12,2.32,2.32,0,0,0,.28.76,1.23,1.23,0,0,0,.47.44,1.38,1.38,0,0,0,.62.13,1.39,1.39,0,0,0,.63-.13,1.28,1.28,0,0,0,.46-.44,2.33,2.33,0,0,0,.27-.76,6,6,0,0,0,.09-1.12Z" transform="translate(-69.11 -52.68)" fill="#bdd3fa"/><path d="M498.72,120.93a1.59,1.59,0,0,1,.11-.62,1.42,1.42,0,0,1,.81-.85,1.77,1.77,0,0,1,1.33,0,1.44,1.44,0,0,1,.49.34,1.49,1.49,0,0,1,.31.51,1.59,1.59,0,0,1,.11.62v.41a1.74,1.74,0,0,1-.1.61,1.45,1.45,0,0,1-.31.51,1.48,1.48,0,0,1-.5.34,1.53,1.53,0,0,1-.66.13,1.6,1.6,0,0,1-.67-.13,1.58,1.58,0,0,1-.5-.34,1.32,1.32,0,0,1-.31-.51,1.54,1.54,0,0,1-.11-.61Zm.73.41a1.49,1.49,0,0,0,.05.36,1.08,1.08,0,0,0,.16.3.71.71,0,0,0,.27.21.92.92,0,0,0,.38.08.84.84,0,0,0,.37-.08A.71.71,0,0,0,501,122a1.05,1.05,0,0,0,.15-.3,1.49,1.49,0,0,0,0-.36v-.41a1.49,1.49,0,0,0,0-.36,1.08,1.08,0,0,0-.16-.3.78.78,0,0,0-.64-.3.74.74,0,0,0-.64.3,1.08,1.08,0,0,0-.16.3,1.49,1.49,0,0,0-.05.36Zm1.08,5.26-.55-.36,3.77-6,.56.35Zm2-1.32a1.78,1.78,0,0,1,.11-.61,1.48,1.48,0,0,1,.32-.51,1.39,1.39,0,0,1,.5-.34,1.74,1.74,0,0,1,1.32,0,1.39,1.39,0,0,1,.5.34,1.48,1.48,0,0,1,.32.51,1.78,1.78,0,0,1,.11.61v.42a1.84,1.84,0,0,1-.11.62,1.53,1.53,0,0,1-.32.5,1.44,1.44,0,0,1-.49.34,1.77,1.77,0,0,1-1.33,0,1.48,1.48,0,0,1-.5-.34,1.53,1.53,0,0,1-.32-.5,1.84,1.84,0,0,1-.11-.62Zm.74.42a1.49,1.49,0,0,0,0,.36,1.08,1.08,0,0,0,.16.3.71.71,0,0,0,.27.21.76.76,0,0,0,.38.08.75.75,0,0,0,.37-.08.67.67,0,0,0,.26-.21,1.08,1.08,0,0,0,.16-.3,1.49,1.49,0,0,0,.05-.36v-.42a1.13,1.13,0,0,0-.06-.36.85.85,0,0,0-.15-.3.71.71,0,0,0-.27-.21.87.87,0,0,0-.37-.08.84.84,0,0,0-.37.08.71.71,0,0,0-.27.21,1.08,1.08,0,0,0-.16.3,1.49,1.49,0,0,0,0,.36Z" transform="translate(-69.11 -52.68)" fill="#bdd3fa"/><path d="M491.65,154.65h-5.07v-.71l2.54-2.81c.23-.26.42-.49.58-.69a5,5,0,0,0,.36-.54,1.87,1.87,0,0,0,.19-.46,1.67,1.67,0,0,0,.06-.44,1.61,1.61,0,0,0-.09-.54A1.28,1.28,0,0,0,490,148a1.6,1.6,0,0,0-.42-.3,1.5,1.5,0,0,0-.58-.11,1.76,1.76,0,0,0-.68.12,1.37,1.37,0,0,0-.48.33,1.33,1.33,0,0,0-.29.49,2.2,2.2,0,0,0-.09.64h-1a2.82,2.82,0,0,1,.16-.92,2.11,2.11,0,0,1,.49-.76,2.08,2.08,0,0,1,.79-.51,2.83,2.83,0,0,1,1.09-.19,3,3,0,0,1,1,.15,2.14,2.14,0,0,1,.74.42,1.73,1.73,0,0,1,.45.65,2.15,2.15,0,0,1,.16.85,2.42,2.42,0,0,1-.11.69,3.48,3.48,0,0,1-.32.68,4.79,4.79,0,0,1-.46.68c-.18.23-.36.45-.56.67l-2.07,2.25h3.88Z" transform="translate(-69.11 -52.68)" fill="#bdd3fa"/><path d="M496.84,152.05h1.08v.8h-1.08v1.8h-1v-1.8h-3.52v-.58l3.46-5.36h1Zm-3.39,0h2.4v-3.79l-.11.21Z" transform="translate(-69.11 -52.68)" fill="#bdd3fa"/><path d="M498.72,148.4a1.62,1.62,0,0,1,.11-.62,1.49,1.49,0,0,1,.31-.51,1.64,1.64,0,0,1,.5-.34,1.62,1.62,0,0,1,1.82.34,1.49,1.49,0,0,1,.31.51,1.62,1.62,0,0,1,.11.62v.41a1.74,1.74,0,0,1-.1.61,1.45,1.45,0,0,1-.31.51,1.48,1.48,0,0,1-.5.34,1.53,1.53,0,0,1-.66.13,1.6,1.6,0,0,1-.67-.13,1.58,1.58,0,0,1-.5-.34,1.32,1.32,0,0,1-.31-.51,1.54,1.54,0,0,1-.11-.61Zm.73.41a1.42,1.42,0,0,0,.05.36,1.08,1.08,0,0,0,.16.3.71.71,0,0,0,.27.21.92.92,0,0,0,.38.08.84.84,0,0,0,.37-.08.71.71,0,0,0,.27-.21.94.94,0,0,0,.15-.3,1.42,1.42,0,0,0,0-.36v-.41a1.49,1.49,0,0,0,0-.36,1.08,1.08,0,0,0-.16-.3.78.78,0,0,0-.64-.3.74.74,0,0,0-.64.3,1.08,1.08,0,0,0-.16.3,1.49,1.49,0,0,0-.05.36Zm1.08,5.26-.55-.36,3.77-6,.56.35Zm2-1.32a1.78,1.78,0,0,1,.11-.61,1.48,1.48,0,0,1,.32-.51,1.39,1.39,0,0,1,.5-.34,1.74,1.74,0,0,1,1.32,0,1.39,1.39,0,0,1,.5.34,1.48,1.48,0,0,1,.32.51,1.78,1.78,0,0,1,.11.61v.42a1.84,1.84,0,0,1-.11.62,1.53,1.53,0,0,1-.32.5,1.31,1.31,0,0,1-.49.34,1.77,1.77,0,0,1-1.33,0,1.35,1.35,0,0,1-.5-.34,1.53,1.53,0,0,1-.32-.5,1.84,1.84,0,0,1-.11-.62Zm.74.42a1.49,1.49,0,0,0,0,.36,1.08,1.08,0,0,0,.16.3.71.71,0,0,0,.27.21.76.76,0,0,0,.38.08.75.75,0,0,0,.37-.08.67.67,0,0,0,.26-.21,1.08,1.08,0,0,0,.16-.3,1.49,1.49,0,0,0,.05-.36v-.42a1.13,1.13,0,0,0-.06-.36.85.85,0,0,0-.15-.3.82.82,0,0,0-.27-.21.87.87,0,0,0-.37-.08.84.84,0,0,0-.37.08.82.82,0,0,0-.27.21,1.08,1.08,0,0,0-.16.3,1.49,1.49,0,0,0,0,.36Z" transform="translate(-69.11 -52.68)" fill="#bdd3fa"/><path d="M681.25,99.73H633.53A2.77,2.77,0,0,1,630.76,97h0a2.77,2.77,0,0,1,2.77-2.77h47.72A2.77,2.77,0,0,1,684,97h0A2.77,2.77,0,0,1,681.25,99.73Z" transform="translate(-69.11 -52.68)" fill="#bdd3fa"/><path d="M681.25,125.71H633.53a2.77,2.77,0,0,1-2.77-2.77h0a2.77,2.77,0,0,1,2.77-2.77h47.72a2.77,2.77,0,0,1,2.77,2.77h0A2.77,2.77,0,0,1,681.25,125.71Z" transform="translate(-69.11 -52.68)" fill="#bdd3fa"/><path d="M679.9,125.71H633.53a2.77,2.77,0,0,1-2.77-2.77h0a2.77,2.77,0,0,1,2.77-2.77H679.9a2.77,2.77,0,0,1,2.77,2.77h0A2.77,2.77,0,0,1,679.9,125.71Z" transform="translate(-69.11 -52.68)" fill="#ff7867"/><path d="M681.25,154.29H633.53a2.77,2.77,0,0,1-2.77-2.77h0a2.77,2.77,0,0,1,2.77-2.77h47.72a2.77,2.77,0,0,1,2.77,2.77h0A2.77,2.77,0,0,1,681.25,154.29Z" transform="translate(-69.11 -52.68)" fill="#bdd3fa"/><rect x="561.66" y="96.07" width="14.41" height="5.54" rx="2.57" fill="#ff7867"/><path d="M605.79,97.84a6.65,6.65,0,0,1-.17,1.6,3,3,0,0,1-.49,1,1.78,1.78,0,0,1-.76.58,3.12,3.12,0,0,1-2,0,1.88,1.88,0,0,1-.77-.58,3,3,0,0,1-.49-1,6.18,6.18,0,0,1-.17-1.6V96.66a6.07,6.07,0,0,1,.17-1.6,2.67,2.67,0,0,1,.49-1,1.79,1.79,0,0,1,.77-.57,2.87,2.87,0,0,1,1-.17,3,3,0,0,1,1,.17,1.79,1.79,0,0,1,.77.57,2.82,2.82,0,0,1,.49,1,6.53,6.53,0,0,1,.17,1.6Zm-1-1.35a5.93,5.93,0,0,0-.09-1.11,2,2,0,0,0-.28-.74,1,1,0,0,0-.46-.41,1.39,1.39,0,0,0-.63-.13,1.38,1.38,0,0,0-.62.13,1.06,1.06,0,0,0-.46.41,2.44,2.44,0,0,0-.28.74,5.93,5.93,0,0,0-.09,1.11V98A5.93,5.93,0,0,0,602,99.1a2.38,2.38,0,0,0,.29.77,1.18,1.18,0,0,0,.46.43,1.38,1.38,0,0,0,.62.14,1.41,1.41,0,0,0,.64-.14,1.16,1.16,0,0,0,.45-.43,2.39,2.39,0,0,0,.27-.77A5.93,5.93,0,0,0,604.8,98Z" transform="translate(-69.11 -52.68)" fill="#bdd3fa"/><path d="M607,94.89a1.8,1.8,0,0,1,.11-.62,1.55,1.55,0,0,1,.31-.51,1.61,1.61,0,0,1,.5-.35,1.78,1.78,0,0,1,.67-.12,1.73,1.73,0,0,1,.66.12,1.5,1.5,0,0,1,.5.35,1.55,1.55,0,0,1,.31.51,1.8,1.8,0,0,1,.11.62v.41a1.78,1.78,0,0,1-.11.61,1.36,1.36,0,0,1-.31.5,1.41,1.41,0,0,1-.5.35,1.67,1.67,0,0,1-.65.12,1.78,1.78,0,0,1-.67-.12,1.5,1.5,0,0,1-.5-.35,1.38,1.38,0,0,1-.32-.5,1.78,1.78,0,0,1-.11-.61Zm.74.41a1,1,0,0,0,0,.35.72.72,0,0,0,.16.3.84.84,0,0,0,.27.22.86.86,0,0,0,.38.08.87.87,0,0,0,.37-.08,1.09,1.09,0,0,0,.26-.21,1,1,0,0,0,.16-.31,1.34,1.34,0,0,0,0-.35v-.41a1,1,0,0,0-.06-.36,1,1,0,0,0-.15-.31.71.71,0,0,0-.27-.21.87.87,0,0,0-.37-.08.86.86,0,0,0-.38.08.61.61,0,0,0-.26.21.83.83,0,0,0-.16.31,1,1,0,0,0,0,.36Zm1.08,5.25-.56-.35,3.78-6,.56.35Zm2-1.31a1.84,1.84,0,0,1,.11-.62,1.66,1.66,0,0,1,.31-.51,1.71,1.71,0,0,1,1.83-.34,1.64,1.64,0,0,1,.5.34,1.49,1.49,0,0,1,.31.51,1.62,1.62,0,0,1,.11.62v.41a1.59,1.59,0,0,1-.11.62,1.4,1.4,0,0,1-.31.51,1.64,1.64,0,0,1-.5.34,1.69,1.69,0,0,1-.66.13,1.73,1.73,0,0,1-.66-.13,1.69,1.69,0,0,1-.51-.34,1.55,1.55,0,0,1-.31-.51,1.8,1.8,0,0,1-.11-.62Zm.73.41a1,1,0,0,0,.06.36.81.81,0,0,0,.15.31.79.79,0,0,0,.27.21.94.94,0,0,0,.76,0,.75.75,0,0,0,.26-.21.81.81,0,0,0,.15-.31,1,1,0,0,0,0-.36v-.41a1,1,0,0,0,0-.36,1,1,0,0,0-.16-.3.75.75,0,0,0-.26-.21.79.79,0,0,0-.38-.08.75.75,0,0,0-.37.08.79.79,0,0,0-.27.21.77.77,0,0,0-.15.3,1,1,0,0,0-.06.36Z" transform="translate(-69.11 -52.68)" fill="#bdd3fa"/><path d="M602,126.36a3.47,3.47,0,0,0,1.31-.22,2,2,0,0,0,.82-.57,2.11,2.11,0,0,0,.42-.83,4.36,4.36,0,0,0,.14-1,2.46,2.46,0,0,1-.73.59,2,2,0,0,1-.94.22,2,2,0,0,1-1.68-.81A2.44,2.44,0,0,1,601,123a3.31,3.31,0,0,1-.13-.93,3.6,3.6,0,0,1,.15-1,2.47,2.47,0,0,1,.45-.85,2.14,2.14,0,0,1,.75-.57,2.44,2.44,0,0,1,1-.21,2.22,2.22,0,0,1,1.13.27,2.16,2.16,0,0,1,.77.7,3.05,3.05,0,0,1,.43,1,4.37,4.37,0,0,1,.14,1.15v.35a9,9,0,0,1-.05,1,5.69,5.69,0,0,1-.19,1,3.68,3.68,0,0,1-.39.91,2.73,2.73,0,0,1-.66.74,3.23,3.23,0,0,1-1,.5,4.79,4.79,0,0,1-1.39.18h-.1v-.82Zm1.18-2.58a1.51,1.51,0,0,0,.48-.08,1.59,1.59,0,0,0,.43-.22,2.31,2.31,0,0,0,.36-.34,1.73,1.73,0,0,0,.25-.41v-.4a3.28,3.28,0,0,0-.12-.93,2.05,2.05,0,0,0-.33-.68,1.32,1.32,0,0,0-.47-.42,1.15,1.15,0,0,0-.56-.15,1.31,1.31,0,0,0-.61.14,1.38,1.38,0,0,0-.45.38,1.52,1.52,0,0,0-.28.57,2.37,2.37,0,0,0-.1.72,2.46,2.46,0,0,0,.09.67,1.84,1.84,0,0,0,.25.59,1.4,1.4,0,0,0,.44.4A1.15,1.15,0,0,0,603.19,123.78Z" transform="translate(-69.11 -52.68)" fill="#bdd3fa"/><path d="M611.74,121.46a1.74,1.74,0,0,1-.31,1,2.1,2.1,0,0,1-.82.71,2.23,2.23,0,0,1,.95.75,1.87,1.87,0,0,1,.36,1.14,2.13,2.13,0,0,1-.19.94,2,2,0,0,1-.52.69,2.1,2.1,0,0,1-.78.42,3.21,3.21,0,0,1-1.94,0,2.1,2.1,0,0,1-.78-.42,2,2,0,0,1-.52-.69,2.13,2.13,0,0,1-.19-.94,2,2,0,0,1,.09-.61,2,2,0,0,1,.26-.53,2.07,2.07,0,0,1,.4-.44,2.85,2.85,0,0,1,.54-.32,2,2,0,0,1-.81-.7,1.83,1.83,0,0,1-.3-1,2.37,2.37,0,0,1,.17-.9,1.85,1.85,0,0,1,.47-.66,2,2,0,0,1,.73-.42,3,3,0,0,1,1.82,0,2,2,0,0,1,.72.42,1.76,1.76,0,0,1,.48.66A2.37,2.37,0,0,1,611.74,121.46Zm-.8,3.61a1.59,1.59,0,0,0-.11-.59,1.43,1.43,0,0,0-.31-.47,1.35,1.35,0,0,0-.47-.3,1.64,1.64,0,0,0-.6-.11,1.7,1.7,0,0,0-.61.11,1.31,1.31,0,0,0-.46.3,1.25,1.25,0,0,0-.29.47,1.59,1.59,0,0,0-.11.59,1.78,1.78,0,0,0,.1.59,1.19,1.19,0,0,0,.3.45,1.32,1.32,0,0,0,.46.28,2,2,0,0,0,.62.09,1.91,1.91,0,0,0,.61-.09,1.37,1.37,0,0,0,.47-.28,1.17,1.17,0,0,0,.29-.45A1.55,1.55,0,0,0,610.94,125.07Zm-.18-3.59a1.51,1.51,0,0,0-.1-.53,1.24,1.24,0,0,0-.26-.43,1.39,1.39,0,0,0-.41-.27,1.32,1.32,0,0,0-.53-.11,1.51,1.51,0,0,0-.53.1,1.25,1.25,0,0,0-.41.26,1.29,1.29,0,0,0-.26.42,1.43,1.43,0,0,0-.1.56,1.33,1.33,0,0,0,.1.54,1.29,1.29,0,0,0,.26.42,1.15,1.15,0,0,0,.41.26,1.29,1.29,0,0,0,.53.1,1.32,1.32,0,0,0,.53-.1,1.15,1.15,0,0,0,.41-.26,1.29,1.29,0,0,0,.26-.42A1.53,1.53,0,0,0,610.76,121.48Z" transform="translate(-69.11 -52.68)" fill="#bdd3fa"/><path d="M613.07,120.93a1.8,1.8,0,0,1,.11-.62,1.52,1.52,0,0,1,.32-.51,1.44,1.44,0,0,1,.49-.34,1.6,1.6,0,0,1,.67-.13,1.56,1.56,0,0,1,.66.13,1.48,1.48,0,0,1,.5.34,1.66,1.66,0,0,1,.31.51,1.8,1.8,0,0,1,.11.62v.41a1.74,1.74,0,0,1-.11.61,1.32,1.32,0,0,1-.31.51,1.44,1.44,0,0,1-.49.34,1.77,1.77,0,0,1-1.33,0,1.48,1.48,0,0,1-.5-.34,1.34,1.34,0,0,1-.32-.51,1.74,1.74,0,0,1-.11-.61Zm.74.41a1.12,1.12,0,0,0,.05.36.87.87,0,0,0,.16.3.71.71,0,0,0,.27.21.86.86,0,0,0,.38.08.87.87,0,0,0,.37-.08.75.75,0,0,0,.26-.21,1.08,1.08,0,0,0,.16-.3,1.49,1.49,0,0,0,0-.36v-.41a1.13,1.13,0,0,0-.06-.36.81.81,0,0,0-.42-.52.87.87,0,0,0-.37-.08.86.86,0,0,0-.38.08.71.71,0,0,0-.26.22.87.87,0,0,0-.16.3,1.12,1.12,0,0,0-.05.36Zm1.08,5.26-.56-.36,3.78-6,.56.35Zm2-1.32a1.78,1.78,0,0,1,.11-.61,1.45,1.45,0,0,1,.31-.51,1.6,1.6,0,0,1,1.16-.47,1.6,1.6,0,0,1,.67.13,1.48,1.48,0,0,1,.5.34,1.32,1.32,0,0,1,.31.51,1.57,1.57,0,0,1,.11.61v.42a1.62,1.62,0,0,1-.11.62,1.36,1.36,0,0,1-.31.5,1.48,1.48,0,0,1-.5.34,1.53,1.53,0,0,1-.66.13,1.56,1.56,0,0,1-.66-.13,1.41,1.41,0,0,1-.82-.84,1.84,1.84,0,0,1-.11-.62Zm.73.42a1.13,1.13,0,0,0,.06.36.73.73,0,0,0,.16.3.75.75,0,0,0,.26.21.79.79,0,0,0,.38.08.77.77,0,0,0,.64-.29.85.85,0,0,0,.15-.3,1.12,1.12,0,0,0,0-.36v-.42a1.12,1.12,0,0,0,0-.36,1.08,1.08,0,0,0-.16-.3.67.67,0,0,0-.26-.21.92.92,0,0,0-.38-.08.87.87,0,0,0-.37.08.75.75,0,0,0-.26.21.73.73,0,0,0-.16.3,1.13,1.13,0,0,0-.06.36Z" transform="translate(-69.11 -52.68)" fill="#bdd3fa"/><path d="M604.17,154.65h-1V148.1l-2,.73v-.9l2.81-1.05h.16Z" transform="translate(-69.11 -52.68)" fill="#bdd3fa"/><path d="M610.9,146.91v.83h-.09a2.89,2.89,0,0,0-1.2.22,2.43,2.43,0,0,0-.82.56,2.56,2.56,0,0,0-.48.81,3.84,3.84,0,0,0-.21.95,2.05,2.05,0,0,1,.75-.54,2.54,2.54,0,0,1,.92-.16,2.08,2.08,0,0,1,1,.22,2,2,0,0,1,.69.58,2.46,2.46,0,0,1,.4.81,3.33,3.33,0,0,1,.13.94,3.17,3.17,0,0,1-.16,1,2.29,2.29,0,0,1-.45.83,2,2,0,0,1-.75.56,2.41,2.41,0,0,1-1,.21,2.22,2.22,0,0,1-1.09-.26,2.59,2.59,0,0,1-.78-.69,3.13,3.13,0,0,1-.47-.95,3.89,3.89,0,0,1-.15-1.07v-.46a7.83,7.83,0,0,1,.07-1.08,4.83,4.83,0,0,1,.23-1,3.72,3.72,0,0,1,.44-.92,2.94,2.94,0,0,1,.68-.73,3.22,3.22,0,0,1,1-.49,4.68,4.68,0,0,1,1.31-.17Zm-1.29,3.48a1.39,1.39,0,0,0-.5.09,1.65,1.65,0,0,0-.44.22,1.88,1.88,0,0,0-.35.34,1.44,1.44,0,0,0-.23.42v.36a3.09,3.09,0,0,0,.12.91,2.21,2.21,0,0,0,.34.67,1.55,1.55,0,0,0,.48.41,1.24,1.24,0,0,0,.56.13,1.33,1.33,0,0,0,.61-.13,1.3,1.3,0,0,0,.45-.36,2,2,0,0,0,.28-.56,2.73,2.73,0,0,0,.09-.72,2.39,2.39,0,0,0-.09-.66,1.49,1.49,0,0,0-.26-.57,1.3,1.3,0,0,0-.44-.4A1.24,1.24,0,0,0,609.61,150.39Z" transform="translate(-69.11 -52.68)" fill="#bdd3fa"/><path d="M613.07,148.4a1.62,1.62,0,0,1,.11-.62,1.49,1.49,0,0,1,.31-.51,1.64,1.64,0,0,1,.5-.34,1.62,1.62,0,0,1,1.82.34,1.49,1.49,0,0,1,.31.51,1.62,1.62,0,0,1,.11.62v.41a1.74,1.74,0,0,1-.1.61,1.45,1.45,0,0,1-.31.51,1.48,1.48,0,0,1-.5.34,1.68,1.68,0,0,1-1.83-.34,1.32,1.32,0,0,1-.31-.51,1.54,1.54,0,0,1-.11-.61Zm.73.41a1.42,1.42,0,0,0,.05.36,1.08,1.08,0,0,0,.16.3.71.71,0,0,0,.27.21.92.92,0,0,0,.38.08.84.84,0,0,0,.37-.08.71.71,0,0,0,.27-.21.77.77,0,0,0,.15-.3,1.42,1.42,0,0,0,0-.36v-.41a1.49,1.49,0,0,0,0-.36,1.08,1.08,0,0,0-.16-.3.81.81,0,0,0-1.28,0,1.08,1.08,0,0,0-.16.3,1.49,1.49,0,0,0-.05.36Zm1.08,5.26-.55-.36,3.77-6,.56.35Zm2-1.32a1.78,1.78,0,0,1,.11-.61,1.48,1.48,0,0,1,.32-.51,1.39,1.39,0,0,1,.5-.34,1.74,1.74,0,0,1,1.32,0,1.39,1.39,0,0,1,.5.34,1.34,1.34,0,0,1,.32.51,1.78,1.78,0,0,1,.11.61v.42a1.84,1.84,0,0,1-.11.62,1.38,1.38,0,0,1-.32.5,1.31,1.31,0,0,1-.49.34,1.77,1.77,0,0,1-1.33,0,1.43,1.43,0,0,1-.5-.34,1.53,1.53,0,0,1-.32-.5,1.84,1.84,0,0,1-.11-.62Zm.74.42a1.49,1.49,0,0,0,0,.36,1.08,1.08,0,0,0,.16.3.71.71,0,0,0,.27.21.76.76,0,0,0,.38.08.75.75,0,0,0,.37-.08.61.61,0,0,0,.26-.21,1.08,1.08,0,0,0,.16-.3,1.49,1.49,0,0,0,0-.36v-.42a1.13,1.13,0,0,0-.06-.36.85.85,0,0,0-.15-.3.82.82,0,0,0-.27-.21.87.87,0,0,0-.37-.08.84.84,0,0,0-.37.08.82.82,0,0,0-.27.21,1.08,1.08,0,0,0-.16.3,1.49,1.49,0,0,0,0,.36Z" transform="translate(-69.11 -52.68)" fill="#bdd3fa"/><path d="M196,273.57H161.89a.51.51,0,0,1-.5-.5.5.5,0,0,1,.5-.5H196a.5.5,0,0,1,.5.5A.5.5,0,0,1,196,273.57Z" transform="translate(-69.11 -52.68)" fill="#97c2ff"/><path d="M187.05,281.58H161.89a.51.51,0,0,1-.5-.5.5.5,0,0,1,.5-.5h25.16a.5.5,0,0,1,.5.5A.5.5,0,0,1,187.05,281.58Z" transform="translate(-69.11 -52.68)" fill="#97c2ff"/><path d="M174.47,289.59H161.89a.51.51,0,0,1-.5-.5.5.5,0,0,1,.5-.5h12.58a.5.5,0,0,1,.5.5A.5.5,0,0,1,174.47,289.59Z" transform="translate(-69.11 -52.68)" fill="#97c2ff"/><path d="M337.36,237.08H303.25a.5.5,0,0,1,0-1h34.11a.5.5,0,0,1,0,1Z" transform="translate(-69.11 -52.68)" fill="#97c2ff"/><path d="M328.4,245.09H303.25a.5.5,0,0,1,0-1H328.4a.5.5,0,0,1,0,1Z" transform="translate(-69.11 -52.68)" fill="#97c2ff"/><path d="M315.82,253.1H303.25a.5.5,0,0,1,0-1h12.57a.5.5,0,0,1,0,1Z" transform="translate(-69.11 -52.68)" fill="#97c2ff"/><path d="M241.17,239.78H216a.5.5,0,0,1,0-1h25.16a.5.5,0,0,1,0,1Z" transform="translate(-69.11 -52.68)" fill="#97c2ff"/><path d="M228.59,247.79H216a.5.5,0,0,1-.5-.5.5.5,0,0,1,.5-.5h12.58a.5.5,0,0,1,.5.5A.5.5,0,0,1,228.59,247.79Z" transform="translate(-69.11 -52.68)" fill="#97c2ff"/><path d="M167.8,247.31a.29.29,0,0,1-.21-.09l-9-9a.3.3,0,0,1,.42-.42l9,9a.3.3,0,0,1-.21.51Z" transform="translate(-69.11 -52.68)" fill="#97c2ff"/><path d="M165.14,250a.29.29,0,0,1-.21-.09l-9-9a.3.3,0,0,1,.42-.42l9,9a.3.3,0,0,1-.21.51Z" transform="translate(-69.11 -52.68)" fill="#97c2ff"/><path d="M152.34,262.77a.29.29,0,0,1-.21-.09l-9-9a.3.3,0,0,1,.42-.42l9,9a.3.3,0,0,1-.21.51Z" transform="translate(-69.11 -52.68)" fill="#97c2ff"/><path d="M149.72,265.39a.32.32,0,0,1-.21-.08l-9-9a.3.3,0,0,1,.42-.42l9,9a.3.3,0,0,1,0,.43A.32.32,0,0,1,149.72,265.39Z" transform="translate(-69.11 -52.68)" fill="#97c2ff"/><path d="M147.1,268a.27.27,0,0,1-.21-.09l-9-9a.3.3,0,0,1,.43-.43l9,9a.3.3,0,0,1,0,.43A.3.3,0,0,1,147.1,268Z" transform="translate(-69.11 -52.68)" fill="#97c2ff"/><path d="M144.48,270.64a.31.31,0,0,1-.22-.09l-9-9a.3.3,0,1,1,.43-.43l9,9a.31.31,0,0,1,0,.42A.3.3,0,0,1,144.48,270.64Z" transform="translate(-69.11 -52.68)" fill="#97c2ff"/><path d="M130.93,284.18a.32.32,0,0,1-.21-.08l-9-9a.3.3,0,0,1,.42-.42l9,9a.3.3,0,0,1,0,.43A.32.32,0,0,1,130.93,284.18Z" transform="translate(-69.11 -52.68)" fill="#97c2ff"/><path d="M127.93,287.18a.3.3,0,0,1-.21-.09l-9-9a.29.29,0,0,1,0-.42.3.3,0,0,1,.43,0l9,9a.3.3,0,0,1-.22.51Z" transform="translate(-69.11 -52.68)" fill="#97c2ff"/><path d="M143.11,276a48.26,48.26,0,0,1-12.62-2.14l-.86-.24a42.7,42.7,0,0,0-8.38-1.72,13.4,13.4,0,0,0-8.85,2.2.3.3,0,1,1-.35-.48,14,14,0,0,1,9.24-2.32,42.75,42.75,0,0,1,8.5,1.74l.86.24c4,1.11,8.73,2.28,13.44,2.1a13.89,13.89,0,0,0,7.42-2.13c6.1-4.25,5.41-12.73,3.76-19.1-.29-1.11-.61-2.22-.93-3.33a53.27,53.27,0,0,1-1.93-8.37c-.56-4.65.33-8.79,2.5-11.67a.3.3,0,0,1,.48.36c-2.08,2.75-2.93,6.75-2.39,11.24a52.55,52.55,0,0,0,1.92,8.27c.32,1.12.64,2.23.93,3.35,1.7,6.55,2.39,15.3-4,19.74a14.38,14.38,0,0,1-7.74,2.24Z" transform="translate(-69.11 -52.68)" fill="#97c2ff"/><path d="M131.89,293.86a.32.32,0,0,1-.18-.06.3.3,0,0,1-.06-.42,13.46,13.46,0,0,0,2.2-8.85,38.84,38.84,0,0,0-1.53-7.71.29.29,0,0,1,.21-.37.28.28,0,0,1,.36.21,38.25,38.25,0,0,1,1.56,7.83,14,14,0,0,1-2.32,9.25A.29.29,0,0,1,131.89,293.86Z" transform="translate(-69.11 -52.68)" fill="#97c2ff"/><path d="M131.84,274.24a.31.31,0,0,1-.29-.22,42.89,42.89,0,0,1-1.78-12.35,14.46,14.46,0,0,1,2.24-7.74c4.44-6.39,13.19-5.7,19.74-4,1,.27,2,.56,3.05.85a.29.29,0,0,1,.2.37.3.3,0,0,1-.37.21c-1-.29-2-.58-3-.85-6.37-1.65-14.85-2.34-19.1,3.77a13.83,13.83,0,0,0-2.13,7.42,42.12,42.12,0,0,0,1.76,12.16.3.3,0,0,1-.21.37Z" transform="translate(-69.11 -52.68)" fill="#97c2ff"/><path d="M166,253.54a22.23,22.23,0,0,1-2.66-.17,37.78,37.78,0,0,1-5.4-1.1.29.29,0,0,1-.22-.36.31.31,0,0,1,.37-.22,38.47,38.47,0,0,0,5.32,1.09c4.5.54,8.49-.31,11.24-2.39a.3.3,0,0,1,.37.48A14.87,14.87,0,0,1,166,253.54Z" transform="translate(-69.11 -52.68)" fill="#97c2ff"/><path d="M241.33,287.45H224.81a.28.28,0,0,1-.26-.15L216.29,273a.32.32,0,0,1,0-.3l8.26-14.3a.28.28,0,0,1,.26-.15h16.52a.3.3,0,0,1,.26.15l8.26,14.3a.32.32,0,0,1,0,.3l-8.26,14.3A.3.3,0,0,1,241.33,287.45Zm-16.35-.6h16.17l8.09-14-8.09-14H225l-8.08,14Z" transform="translate(-69.11 -52.68)" fill="#97c2ff"/><path d="M345.62,281.79H329.1a.32.32,0,0,1-.26-.15l-8.25-14.31a.27.27,0,0,1,0-.3l8.25-14.3a.32.32,0,0,1,.26-.15h16.52a.3.3,0,0,1,.26.15l8.26,14.3a.32.32,0,0,1,0,.3l-8.26,14.31A.3.3,0,0,1,345.62,281.79Zm-16.34-.6h16.17l8.08-14-8.08-14H329.28l-8.09,14Z" transform="translate(-69.11 -52.68)" fill="#97c2ff"/><path d="M266.39,273.15H249.87a.32.32,0,0,1-.26-.15l-8.25-14.3a.27.27,0,0,1,0-.3l8.25-14.31a.32.32,0,0,1,.26-.15h16.52a.3.3,0,0,1,.26.15l8.26,14.31a.32.32,0,0,1,0,.3L266.65,273A.3.3,0,0,1,266.39,273.15Zm-16.34-.6h16.17l8.08-14-8.08-14H250.05l-8.09,14Z" transform="translate(-69.11 -52.68)" fill="#97c2ff"/><path d="M317.28,217.68H115.83a5.52,5.52,0,0,1-5.52-5.51h0a5.52,5.52,0,0,1,5.52-5.52H317.28a5.52,5.52,0,0,1,5.51,5.52h0A5.51,5.51,0,0,1,317.28,217.68Z" transform="translate(-69.11 -52.68)" fill="#edf1ff"/><rect x="324.09" y="139.73" width="314.89" height="134.69" rx="5.48" fill="#fff"/><path d="M616,217.68H414.53a5.51,5.51,0,0,1-5.51-5.51h0a5.52,5.52,0,0,1,5.51-5.52H616a5.52,5.52,0,0,1,5.51,5.52h0A5.51,5.51,0,0,1,616,217.68Z" transform="translate(-69.11 -52.68)" fill="#edf1ff"/><path d="M685.3,217.68H633.87a5.51,5.51,0,0,1-5.51-5.51h0a5.51,5.51,0,0,1,5.51-5.52H685.3a5.52,5.52,0,0,1,5.52,5.52h0A5.52,5.52,0,0,1,685.3,217.68Z" transform="translate(-69.11 -52.68)" fill="#edf1ff"/><rect x="372.92" y="178.61" width="53.26" height="5.54" rx="2.43" fill="#bdd3fa"/><path d="M477.62,245.52H443.5a.51.51,0,0,1-.5-.5.5.5,0,0,1,.5-.5h34.12a.5.5,0,0,1,.5.5A.5.5,0,0,1,477.62,245.52Z" transform="translate(-69.11 -52.68)" fill="#97c2ff"/><path d="M468.66,253.53H443.5a.51.51,0,0,1-.5-.5.5.5,0,0,1,.5-.5h25.16a.5.5,0,0,1,.5.5A.5.5,0,0,1,468.66,253.53Z" transform="translate(-69.11 -52.68)" fill="#97c2ff"/><path d="M456.08,261.54H443.5a.5.5,0,0,1,0-1h12.58a.5.5,0,0,1,0,1Z" transform="translate(-69.11 -52.68)" fill="#97c2ff"/><path d="M432,253.73H416a3.22,3.22,0,0,1-3.22-3.22v-16a3.22,3.22,0,0,1,3.22-3.22h16a3.22,3.22,0,0,1,3.22,3.22v16A3.22,3.22,0,0,1,432,253.73Zm-16-21.47a2.22,2.22,0,0,0-2.22,2.22v16a2.22,2.22,0,0,0,2.22,2.22h16a2.22,2.22,0,0,0,2.22-2.22v-16a2.22,2.22,0,0,0-2.22-2.22Z" transform="translate(-69.11 -52.68)" fill="#97c2ff"/><path d="M427.26,246.29a.47.47,0,0,1-.35-.15l-6.58-6.58a.5.5,0,0,1,0-.71.5.5,0,0,1,.7,0l6.58,6.58a.5.5,0,0,1,0,.71A.47.47,0,0,1,427.26,246.29Z" transform="translate(-69.11 -52.68)" fill="#ff7867"/><path d="M420.68,246.29a.47.47,0,0,1-.35-.15.5.5,0,0,1,0-.71l6.58-6.58a.5.5,0,0,1,.7,0,.5.5,0,0,1,0,.71L421,246.14A.47.47,0,0,1,420.68,246.29Z" transform="translate(-69.11 -52.68)" fill="#ff7867"/><rect x="470.17" y="225.47" width="53.26" height="5.54" rx="2.43" fill="#bdd3fa"/><path d="M574.87,292.38H540.75a.5.5,0,0,1,0-1h34.12a.5.5,0,0,1,0,1Z" transform="translate(-69.11 -52.68)" fill="#97c2ff"/><path d="M565.91,300.39H540.75a.5.5,0,0,1,0-1h25.16a.5.5,0,0,1,0,1Z" transform="translate(-69.11 -52.68)" fill="#97c2ff"/><path d="M553.33,308.4H540.75a.5.5,0,0,1,0-1h12.58a.5.5,0,0,1,0,1Z" transform="translate(-69.11 -52.68)" fill="#97c2ff"/><path d="M529.23,300.59h-16a3.22,3.22,0,0,1-3.22-3.22v-16a3.23,3.23,0,0,1,3.22-3.23h16a3.23,3.23,0,0,1,3.23,3.23v16A3.23,3.23,0,0,1,529.23,300.59Zm-16-21.47a2.22,2.22,0,0,0-2.22,2.23v16a2.21,2.21,0,0,0,2.22,2.22h16a2.22,2.22,0,0,0,2.23-2.22v-16a2.23,2.23,0,0,0-2.23-2.23Z" transform="translate(-69.11 -52.68)" fill="#97c2ff"/><path d="M524.51,293.15a.49.49,0,0,1-.35-.15l-6.58-6.58a.48.48,0,0,1,0-.7.5.5,0,0,1,.71,0l6.58,6.58a.5.5,0,0,1,0,.7A.51.51,0,0,1,524.51,293.15Z" transform="translate(-69.11 -52.68)" fill="#ff7867"/><path d="M517.93,293.15a.5.5,0,0,1-.35-.85l6.58-6.58a.5.5,0,0,1,.71,0,.5.5,0,0,1,0,.7L518.29,293A.51.51,0,0,1,517.93,293.15Z" transform="translate(-69.11 -52.68)" fill="#ff7867"/><rect x="568.45" y="224.33" width="53.26" height="5.54" rx="2.43" fill="#bdd3fa"/><path d="M673.15,291.23H639a.5.5,0,0,1-.5-.5.5.5,0,0,1,.5-.5h34.12a.51.51,0,0,1,.5.5A.5.5,0,0,1,673.15,291.23Z" transform="translate(-69.11 -52.68)" fill="#97c2ff"/><path d="M664.19,299.24H639a.5.5,0,0,1-.5-.5.5.5,0,0,1,.5-.5h25.16a.51.51,0,0,1,.5.5A.5.5,0,0,1,664.19,299.24Z" transform="translate(-69.11 -52.68)" fill="#97c2ff"/><path d="M651.61,307.25H639a.5.5,0,0,1-.5-.5.5.5,0,0,1,.5-.5h12.58a.51.51,0,0,1,.5.5A.5.5,0,0,1,651.61,307.25Z" transform="translate(-69.11 -52.68)" fill="#97c2ff"/><path d="M627.51,299.44h-16a3.22,3.22,0,0,1-3.22-3.22v-16a3.22,3.22,0,0,1,3.22-3.22h16a3.22,3.22,0,0,1,3.22,3.22v16A3.22,3.22,0,0,1,627.51,299.44Zm-16-21.46a2.22,2.22,0,0,0-2.22,2.22v16a2.22,2.22,0,0,0,2.22,2.22h16a2.22,2.22,0,0,0,2.22-2.22v-16a2.22,2.22,0,0,0-2.22-2.22Z" transform="translate(-69.11 -52.68)" fill="#97c2ff"/><path d="M622.79,292a.54.54,0,0,1-.36-.14l-6.58-6.59a.5.5,0,0,1,0-.7.5.5,0,0,1,.71,0l6.58,6.58a.51.51,0,0,1,0,.71A.54.54,0,0,1,622.79,292Z" transform="translate(-69.11 -52.68)" fill="#ff7867"/><path d="M616.21,292a.54.54,0,0,1-.36-.14.51.51,0,0,1,0-.71l6.58-6.58a.5.5,0,0,1,.71,0,.5.5,0,0,1,0,.7l-6.58,6.59A.54.54,0,0,1,616.21,292Z" transform="translate(-69.11 -52.68)" fill="#ff7867"/><rect x="470.17" y="178.61" width="53.26" height="5.54" rx="2.43" fill="#bdd3fa"/><path d="M574.87,245.52H540.75a.51.51,0,0,1-.5-.5.5.5,0,0,1,.5-.5h34.12a.5.5,0,0,1,.5.5A.5.5,0,0,1,574.87,245.52Z" transform="translate(-69.11 -52.68)" fill="#97c2ff"/><path d="M565.91,253.53H540.75a.51.51,0,0,1-.5-.5.5.5,0,0,1,.5-.5h25.16a.5.5,0,0,1,.5.5A.5.5,0,0,1,565.91,253.53Z" transform="translate(-69.11 -52.68)" fill="#97c2ff"/><path d="M553.33,261.54H540.75a.5.5,0,0,1,0-1h12.58a.5.5,0,0,1,0,1Z" transform="translate(-69.11 -52.68)" fill="#97c2ff"/><path d="M529.23,253.73h-16a3.22,3.22,0,0,1-3.22-3.22v-16a3.22,3.22,0,0,1,3.22-3.22h16a3.23,3.23,0,0,1,3.23,3.22v16A3.23,3.23,0,0,1,529.23,253.73Zm-16-21.47a2.22,2.22,0,0,0-2.22,2.22v16a2.22,2.22,0,0,0,2.22,2.22h16a2.23,2.23,0,0,0,2.23-2.22v-16a2.23,2.23,0,0,0-2.23-2.22Z" transform="translate(-69.11 -52.68)" fill="#97c2ff"/><path d="M520.16,246.29a.53.53,0,0,1-.31-.11.5.5,0,0,1-.08-.7L525,238.9a.49.49,0,0,1,.7-.08.5.5,0,0,1,.09.7l-5.22,6.58A.53.53,0,0,1,520.16,246.29Z" transform="translate(-69.11 -52.68)" fill="#97c2ff"/><path d="M520.16,246.29a.52.52,0,0,1-.41-.22l-3.1-4.46a.51.51,0,0,1,.12-.7.5.5,0,0,1,.7.13l3.1,4.46a.5.5,0,0,1-.12.7A.52.52,0,0,1,520.16,246.29Z" transform="translate(-69.11 -52.68)" fill="#97c2ff"/><rect x="568.45" y="178.61" width="53.26" height="5.54" rx="2.43" fill="#bdd3fa"/><path d="M673.15,245.52H639a.5.5,0,0,1-.5-.5.5.5,0,0,1,.5-.5h34.12a.5.5,0,0,1,.5.5A.51.51,0,0,1,673.15,245.52Z" transform="translate(-69.11 -52.68)" fill="#97c2ff"/><path d="M664.19,253.53H639a.5.5,0,0,1-.5-.5.5.5,0,0,1,.5-.5h25.16a.5.5,0,0,1,.5.5A.51.51,0,0,1,664.19,253.53Z" transform="translate(-69.11 -52.68)" fill="#97c2ff"/><path d="M651.61,261.54H639a.5.5,0,0,1,0-1h12.58a.5.5,0,0,1,0,1Z" transform="translate(-69.11 -52.68)" fill="#97c2ff"/><path d="M627.51,253.73h-16a3.22,3.22,0,0,1-3.22-3.22v-16a3.23,3.23,0,0,1,3.22-3.22h16a3.22,3.22,0,0,1,3.22,3.22v16A3.22,3.22,0,0,1,627.51,253.73Zm-16-21.47a2.23,2.23,0,0,0-2.22,2.22v16a2.23,2.23,0,0,0,2.22,2.22h16a2.23,2.23,0,0,0,2.22-2.22v-16a2.23,2.23,0,0,0-2.22-2.22Z" transform="translate(-69.11 -52.68)" fill="#97c2ff"/><path d="M618.44,246.29a.51.51,0,0,1-.31-.11.5.5,0,0,1-.08-.7l5.22-6.58a.49.49,0,0,1,.7-.08.49.49,0,0,1,.08.7l-5.22,6.58A.51.51,0,0,1,618.44,246.29Z" transform="translate(-69.11 -52.68)" fill="#97c2ff"/><path d="M618.44,246.29a.49.49,0,0,1-.41-.22l-3.11-4.46a.51.51,0,0,1,.13-.7.49.49,0,0,1,.69.13l3.11,4.46a.5.5,0,0,1-.13.7A.47.47,0,0,1,618.44,246.29Z" transform="translate(-69.11 -52.68)" fill="#97c2ff"/><rect x="372.92" y="226.67" width="53.26" height="5.54" rx="2.43" fill="#bdd3fa"/><path d="M477.62,293.57H443.5a.5.5,0,0,1-.5-.5.51.51,0,0,1,.5-.5h34.12a.5.5,0,0,1,.5.5A.5.5,0,0,1,477.62,293.57Z" transform="translate(-69.11 -52.68)" fill="#97c2ff"/><path d="M468.66,301.58H443.5a.5.5,0,0,1-.5-.5.51.51,0,0,1,.5-.5h25.16a.5.5,0,0,1,.5.5A.5.5,0,0,1,468.66,301.58Z" transform="translate(-69.11 -52.68)" fill="#97c2ff"/><path d="M456.08,309.59H443.5a.5.5,0,0,1-.5-.5.51.51,0,0,1,.5-.5h12.58a.5.5,0,0,1,.5.5A.5.5,0,0,1,456.08,309.59Z" transform="translate(-69.11 -52.68)" fill="#97c2ff"/><path d="M432,301.78H416a3.22,3.22,0,0,1-3.22-3.22v-16a3.22,3.22,0,0,1,3.22-3.22h16a3.22,3.22,0,0,1,3.22,3.22v16A3.22,3.22,0,0,1,432,301.78Zm-16-21.46a2.21,2.21,0,0,0-2.22,2.22v16a2.21,2.21,0,0,0,2.22,2.22h16a2.21,2.21,0,0,0,2.22-2.22v-16a2.21,2.21,0,0,0-2.22-2.22Z" transform="translate(-69.11 -52.68)" fill="#97c2ff"/><path d="M422.91,294.34a.45.45,0,0,1-.31-.11.49.49,0,0,1-.08-.7l5.22-6.58a.5.5,0,0,1,.7-.08.49.49,0,0,1,.08.7l-5.22,6.58A.47.47,0,0,1,422.91,294.34Z" transform="translate(-69.11 -52.68)" fill="#97c2ff"/><path d="M422.91,294.34a.49.49,0,0,1-.41-.21l-3.1-4.47a.5.5,0,0,1,.82-.57l3.1,4.47a.5.5,0,0,1-.12.69A.52.52,0,0,1,422.91,294.34Z" transform="translate(-69.11 -52.68)" fill="#97c2ff"/><rect x="374.74" y="313.66" width="53.26" height="5.54" rx="2.43" fill="#bdd3fa"/><path d="M479.44,380.56H445.32a.5.5,0,0,1,0-1h34.12a.5.5,0,0,1,0,1Z" transform="translate(-69.11 -52.68)" fill="#97c2ff"/><path d="M470.48,388.57H445.32a.5.5,0,0,1,0-1h25.16a.5.5,0,0,1,0,1Z" transform="translate(-69.11 -52.68)" fill="#97c2ff"/><path d="M457.9,396.58H445.32a.5.5,0,0,1,0-1H457.9a.5.5,0,0,1,0,1Z" transform="translate(-69.11 -52.68)" fill="#97c2ff"/><rect x="375.21" y="359.94" width="53.26" height="5.54" rx="2.43" fill="#bdd3fa"/><path d="M479.91,426.85H445.79a.51.51,0,0,1-.5-.5.5.5,0,0,1,.5-.5h34.12a.5.5,0,0,1,.5.5A.5.5,0,0,1,479.91,426.85Z" transform="translate(-69.11 -52.68)" fill="#97c2ff"/><path d="M471,434.86H445.79a.5.5,0,0,1,0-1H471a.5.5,0,0,1,0,1Z" transform="translate(-69.11 -52.68)" fill="#97c2ff"/><path d="M458.37,442.87H445.79a.5.5,0,0,1,0-1h12.58a.5.5,0,0,1,0,1Z" transform="translate(-69.11 -52.68)" fill="#97c2ff"/><rect x="48.61" y="323.75" width="19.88" height="77.17" rx="9.21" fill="#bdd3fa"/><rect x="48.61" y="363.62" width="19.88" height="37.3" rx="9.21" fill="#97c2ff"/><rect x="83.62" y="323.75" width="19.88" height="77.17" rx="9.21" fill="#bdd3fa"/><path d="M162.67,453.6h0a9.94,9.94,0,0,1-9.94-9.94v-46.4a9.94,9.94,0,0,1,9.94-9.94h0a9.94,9.94,0,0,1,9.94,9.94v46.4A9.94,9.94,0,0,1,162.67,453.6Z" transform="translate(-69.11 -52.68)" fill="#97c2ff"/><rect x="118.64" y="323.75" width="19.88" height="77.17" rx="9.21" fill="#bdd3fa"/><path d="M197.68,453.6h0a9.94,9.94,0,0,1-9.93-9.94v-5.83a9.94,9.94,0,0,1,9.93-9.94h0a9.94,9.94,0,0,1,9.94,9.94v5.83A9.94,9.94,0,0,1,197.68,453.6Z" transform="translate(-69.11 -52.68)" fill="#97c2ff"/><rect x="153.65" y="323.75" width="19.88" height="77.17" rx="9.21" fill="#bdd3fa"/><rect x="153.65" y="348.72" width="19.88" height="52.21" rx="9.94" fill="#97c2ff"/><rect x="188.67" y="323.75" width="19.88" height="77.17" rx="9.21" fill="#bdd3fa"/><rect x="188.67" y="363.62" width="19.88" height="37.3" rx="9.21" fill="#97c2ff"/><rect x="223.68" y="323.75" width="19.88" height="77.17" rx="9.21" fill="#bdd3fa"/><rect x="223.68" y="363.62" width="19.88" height="37.3" rx="9.21" fill="#97c2ff"/><rect x="258.7" y="323.75" width="19.88" height="77.17" rx="9.21" fill="#bdd3fa"/><path d="M337.74,453.6h0a10,10,0,0,1-9.94-9.94V412.12a10,10,0,0,1,9.94-9.94h0a9.94,9.94,0,0,1,9.94,9.94v31.54A9.94,9.94,0,0,1,337.74,453.6Z" transform="translate(-69.11 -52.68)" fill="#97c2ff"/><rect x="293.71" y="323.75" width="19.88" height="77.17" rx="9.21" fill="#bdd3fa"/><rect x="293.71" y="390.08" width="19.88" height="10.84" rx="5.42" fill="#97c2ff"/><path d="M524.84,450.85s10.52-18.43,24.14-18.43,26.83,9.5,26.83,9.5,11.35,5.57,16.71-1.24,8.67-23.53,19.81-23.11,13.62,18.57,21.25,19c7.23.39,16.48-7.53,29.87-24.29a12.71,12.71,0,0,1,8.78-4.79h.15v43.39Z" transform="translate(-69.11 -52.68)" fill="#bdd3fa"/><path d="M550,356.1a20.82,20.82,0,1,0,20.82,20.81A20.81,20.81,0,0,0,550,356.1Zm0,32.22a11.41,11.41,0,1,1,11.41-11.41A11.42,11.42,0,0,1,550,388.32Z" transform="translate(-69.11 -52.68)" fill="#bdd3fa"/><path d="M549.32,392.08a4.63,4.63,0,0,0-3.06-4.4,11.39,11.39,0,0,1,0-21.53,4.64,4.64,0,0,0,3.06-4.4h0a4.7,4.7,0,0,0-6.22-4.47,20.81,20.81,0,0,0,0,39.27,4.7,4.7,0,0,0,6.22-4.47Z" transform="translate(-69.11 -52.68)" fill="#97c2ff"/><path d="M598.83,355.2A20.82,20.82,0,1,0,619.65,376,20.82,20.82,0,0,0,598.83,355.2Zm0,32.23A11.41,11.41,0,1,1,610.24,376,11.42,11.42,0,0,1,598.83,387.43Z" transform="translate(-69.11 -52.68)" fill="#bdd3fa"/><path d="M588.13,372.1a11.47,11.47,0,0,1,6.91-6.83,4.67,4.67,0,0,0,3.11-4.41v0a4.69,4.69,0,0,0-6.18-4.47,20.86,20.86,0,0,0-12.69,12.55,4.69,4.69,0,0,0,4.46,6.22h0A4.66,4.66,0,0,0,588.13,372.1Z" transform="translate(-69.11 -52.68)" fill="#ff7867"/><path d="M648.28,356.1a20.82,20.82,0,1,0,20.81,20.81A20.82,20.82,0,0,0,648.28,356.1Zm0,32.22a11.41,11.41,0,1,1,11.4-11.41A11.42,11.42,0,0,1,648.28,388.32Z" transform="translate(-69.11 -52.68)" fill="#bdd3fa"/><path d="M419.28,559.77v4.54s5.44,1.51,8.17-1.36v-3.18Z" transform="translate(-69.11 -52.68)" fill="#97c2ff"/><path d="M419.28,564.31s6.35.75,8.17-1.36L438,568.09v2H419.28Z" transform="translate(-69.11 -52.68)" fill="#625e7a"/><path d="M386.48,559.77v4.54s-5.45,1.51-8.17-1.36v-3.18Z" transform="translate(-69.11 -52.68)" fill="#97c2ff"/><path d="M386.48,564.31s-6.35.75-8.17-1.36l-10.59,5.14v2h18.76Z" transform="translate(-69.11 -52.68)" fill="#625e7a"/><path d="M391.08,344.21v6h15.7v-6l2.23-2a6,6,0,0,0,3.39-4.69c.35-3.4-.82-4.57-2.69-3.87H388.34s-1.91-1.09-2.53.71-.16,7.32,3.67,7.39Z" transform="translate(-69.11 -52.68)" fill="#ffb7b0"/><path d="M398.66,345.5c-.13,0-9.61-2.66-10.59-11.64s0-11.84,0-11.84,1.76-6.64,11.68-6.95,11.79,10.39,10,18.59C409.71,333.66,409.43,345,398.66,345.5Z" transform="translate(-69.11 -52.68)" fill="#625e7a"/><path d="M384.28,355.22s2.58-7.26,15.23-7.58c0,0,7.08-.78,13,6.88C412.47,354.52,400.92,346.47,384.28,355.22Z" transform="translate(-69.11 -52.68)" fill="#bdd3fa"/><path d="M384.28,355.85l-15.85,7.34a42.59,42.59,0,0,0-6.41,20c-.3,7.32.72,18.24,1.47,25a22.41,22.41,0,0,0,4.14,10.67l5.4,7.41.86,54.44s16.88,12,54.37,0V423.8l5.33-9.11a24.23,24.23,0,0,0,3.32-12.54c-.13-10.9-1.31-31.57-8.18-39.9l-15.31-7S398.73,345.07,384.28,355.85Z" transform="translate(-69.11 -52.68)" fill="#97c2ff"/><polygon points="318.72 385.89 303.62 373.94 304.24 373.15 318.67 384.58 324.79 378.9 304.29 338.28 304.29 320.98 305.29 320.98 305.29 338.04 326.02 379.13 318.72 385.89" fill="#fff"/><polygon points="340.23 386.95 333.24 379.49 356.3 333.99 355.53 318.66 356.53 318.61 357.31 334.21 357.25 334.33 334.45 379.32 340.33 385.6 358.84 370.74 359.46 371.51 340.23 386.95" fill="#fff"/><polygon points="307.18 429.31 308.22 507.98 319.63 507.98 326.19 433.3 307.18 429.31" fill="#625e7a"/><path d="M405.82,485.57c-.05,0,12.13,75.09,12.13,75.09l10.47-1.1L423.9,482Z" transform="translate(-69.11 -52.68)" fill="#625e7a"/><path d="M395.08,434.25l2.05.86,4.6-.14,2.41,3.63L406,441l-7.36,5.57-.93-.73s-1.59.62-1.93-.81c0,0-2.4.62-2.17-1.32,0,0-2.44.12-1.51-1.86l.42-.89-1.82-2.4Z" transform="translate(-69.11 -52.68)" fill="#ffb7b0"/><path d="M402.65,441a.24.24,0,0,1-.15,0l-3.05-1.73a1,1,0,0,1,.9-1.81l4.36,1.87a.3.3,0,0,1,.16.39.32.32,0,0,1-.4.16L400.11,438a.41.41,0,0,0-.53.19.42.42,0,0,0,.16.55l3.05,1.73a.3.3,0,0,1-.14.56Z" transform="translate(-69.11 -52.68)" fill="#ff988e"/><path d="M401.59,442.63a.3.3,0,0,1-.15-.05l-2.49-1.5a1.2,1.2,0,0,1-.58-.88,1.22,1.22,0,0,1,1.81-1.23l1.56.88a.3.3,0,0,1-.3.52l-1.55-.88a.64.64,0,0,0-.77.12.67.67,0,0,0-.16.51.65.65,0,0,0,.3.45l2.49,1.5a.3.3,0,0,1,.1.41A.32.32,0,0,1,401.59,442.63Z" transform="translate(-69.11 -52.68)" fill="#ff988e"/><path d="M400.56,444.05a.3.3,0,0,1-.16-.05l-2.28-1.43a1,1,0,0,1-.28-1.49,1,1,0,0,1,1.39-.25l1.49,1a.29.29,0,0,1,.09.41.31.31,0,0,1-.42.09l-1.48-1a.44.44,0,0,0-.58.11.42.42,0,0,0-.08.34.44.44,0,0,0,.19.29l2.28,1.43a.29.29,0,0,1,.09.41A.3.3,0,0,1,400.56,444.05Z" transform="translate(-69.11 -52.68)" fill="#ff988e"/><path d="M393.84,443.58l-.11,0a.3.3,0,0,1-.17-.39l.64-1.62a.68.68,0,0,0-1.1-.73l-.33.32a.3.3,0,0,1-.42-.43l.33-.32a1.28,1.28,0,0,1,2.08,1.38l-.64,1.62A.3.3,0,0,1,393.84,443.58Z" transform="translate(-69.11 -52.68)" fill="#ff988e"/><path d="M395.57,444.59l-.1,0a.3.3,0,0,1-.18-.39l.87-2.29a.61.61,0,0,0-.64-.81.6.6,0,0,0-.41.24l-.39.53a.3.3,0,0,1-.42.06.29.29,0,0,1-.06-.42l.39-.53a1.22,1.22,0,0,1,1.72-.22,1.21,1.21,0,0,1,.37,1.36l-.87,2.29A.3.3,0,0,1,395.57,444.59Z" transform="translate(-69.11 -52.68)" fill="#ff988e"/><path d="M397.67,445.48h0a.3.3,0,0,1-.28-.32l.11-2.11a.36.36,0,0,0-.11-.29.4.4,0,0,0-.63.1l-.51,1.09a.3.3,0,1,1-.54-.25l.51-1.09a1,1,0,0,1,1.61-.26,1,1,0,0,1,.27.73L398,445.2A.29.29,0,0,1,397.67,445.48Z" transform="translate(-69.11 -52.68)" fill="#ff988e"/><polygon points="339.31 385.97 337.17 388.17 332.63 382.3 334.9 380.53 339.31 385.97" fill="#545ece"/><polygon points="319.85 384.16 321.64 386.18 326.32 381.57 324.67 379.69 319.85 384.16" fill="#545ece"/></svg>