<svg id="图层_1" data-name="图层 1" xmlns="http://www.w3.org/2000/svg" xmlns:xlink="http://www.w3.org/1999/xlink" viewBox="0 0 2564.77 2834.56"><defs><clipPath id="clip-path" transform="translate(-279.24 -382.2)"><path d="M327,2516.66,349.59,2564l-11.48,5.27c-23.35,10.72-34.67,36-25.28,56.43l101,220c9.38,20.44,35.92,28.32,59.27,17.6L645.83,2784c23.35-10.72,34.67-36,25.28-56.43l-101-220c-9.38-20.44-35.92-28.32-59.27-17.6l-11.48,5.26L476.72,2450" fill="none" stroke="#fff" stroke-linecap="round" stroke-linejoin="round" stroke-width="11.43"/></clipPath><clipPath id="clip-path-2" transform="translate(-279.24 -382.2)"><path d="M1694.09,1418s-45.2,434.2-52.43,498c-20,175.95-5.16,1286.67-5.16,1286.67s581.2,14.69,581.2-2.52c0-10.1-69.44-326.23-105.66-587.91-27.05-195.43-76.93-325-76.93-355.79,0-74.59,124.07-621.7-23.87-739C1911.51,1438.39,1694.09,1418,1694.09,1418Z" fill="#fff"/></clipPath><clipPath id="clip-path-3" transform="translate(-279.24 -382.2)"><path d="M1386.88,1417.92s214.89,301.68,246.8,523.54-29.89,1261.17-29.89,1261.17H954.66s80.37-685,139.21-959.24c29.07-135.45-48.27-474.38-48.27-474.38s-56.2-205.78,96.54-277.69C1268.09,1432,1386.88,1417.92,1386.88,1417.92Z" fill="#fff"/></clipPath><clipPath id="clip-path-4" transform="translate(-279.24 -382.2)"><path d="M1989.86,1514.46c15.53-9.92,27.15-4.34,67.88,58.57,32.46,50.15,246,498.5,250.53,618.57,3.78,99-121.05,207.68-427,363.65L1772.65,2221.7s253.41-91.12,267-125.83C2063.84,2034,1935.56,1549.17,1989.86,1514.46Z" fill="#fff"/></clipPath></defs><circle cx="1246.01" cy="1451.6" r="1177.49" fill="#c9def7"/><polyline points="489.41 793.9 557.02 769.62 720.98 1226.06 367.41 1353.06 203.45 896.63 285.62 867.11" fill="none" stroke="#fff" stroke-linecap="round" stroke-linejoin="round" stroke-width="7.58"/><polyline points="461.43 840.47 536.83 813.38 676.92 1203.39 388.43 1307.02 248.33 917.01 338.77 884.53" fill="none" stroke="#fff" stroke-linecap="round" stroke-linejoin="round" stroke-width="7.58"/><path d="M560.86,1231.76l13.27,37,30.4-10.92c21.19,16,52.22,20.74,82,10s50.68-34.13,56.87-59.94l30.4-10.92-13.27-37Z" transform="translate(-279.24 -382.2)" fill="none" stroke="#fff" stroke-linecap="round" stroke-linejoin="round" stroke-width="7.58"/><path d="M604.4,1242.21l133.28-47.88c6.5-2.34,3.7-12.79-2.87-10.43l-133.29,47.88c-6.5,2.33-3.69,12.79,2.88,10.43Z" transform="translate(-279.24 -382.2)" fill="#f9f9f9"/><polygon points="530.78 860.97 512.79 867.42 506.52 849.97 487.96 856.64 494.23 874.09 477.31 880.17 483.98 898.73 500.9 892.65 507.17 910.1 525.73 903.44 519.46 885.99 537.44 879.53 530.78 860.97" fill="#fff"/><path d="M604,1356.85l145-52.09c4.63-1.66,2.63-9.1-2-7.42l-145,52.09c-4.62,1.67-2.63,9.11,2.05,7.42Z" transform="translate(-279.24 -382.2)" fill="#fcfcfc"/><path d="M621.86,1414.76l189.06-67.91c4.62-1.66,2.63-9.1-2-7.42l-189.06,67.91c-4.63,1.66-2.63,9.1,2.05,7.42Z" transform="translate(-279.24 -382.2)" fill="#fcfcfc"/><path d="M648.67,1478.23l186.47-67c4.63-1.66,2.63-9.1-2-7.42l-186.47,67c-4.62,1.66-2.63,9.1,2,7.42Z" transform="translate(-279.24 -382.2)" fill="#fcfcfc"/><rect x="578.53" y="1317.8" width="26.26" height="26.26" transform="translate(-694.34 -103.83) rotate(-19.76)" fill="none" stroke="#fff" stroke-linecap="round" stroke-linejoin="round" stroke-width="6.16"/><rect x="622.84" y="1438.39" width="26.26" height="26.26" transform="translate(-732.49 -81.75) rotate(-19.76)" fill="none" stroke="#fcf9f7" stroke-linejoin="round" stroke-width="6.16"/><rect x="598.41" y="1375.9" width="26.26" height="26.26" transform="matrix(0.94, -0.34, 0.34, 0.94, -712.81, -93.69)" fill="none" stroke="#fcf9f7" stroke-linejoin="round" stroke-width="6.16"/><path d="M632.46,1455.13A92.25,92.25,0,0,0,655,1464a3.92,3.92,0,0,0,4.35-1.77q7.93-15,15.86-29.94c2.32-4.37-4.32-8.27-6.64-3.88l-15.87,29.94,4.35-1.77a84.66,84.66,0,0,1-20.7-8c-4.34-2.39-8.23,4.26-3.88,6.64Z" transform="translate(-279.24 -382.2)" fill="#fcf9f7"/><path d="M675.93,1551.41l187.21-67.25c4.63-1.66,2.63-9.1-2-7.42L673.88,1544c-4.62,1.66-2.63,9.1,2,7.42Z" transform="translate(-279.24 -382.2)" fill="#fcfcfc"/><path d="M2822.75,2071.9l9.7-18.43a64.72,64.72,0,0,0-27-87.17l-269.23-141.78a64.72,64.72,0,0,0-87.17,27l-9.7,18.43Z" transform="translate(-279.24 -382.2)" fill="none" stroke="#fff" stroke-linecap="round" stroke-linejoin="round" stroke-width="8.32"/><polygon points="2472.3 1554.27 2490.56 1563.89 2487.96 1497.06 2485.87 1494.26 2376.12 1436.46 2373.43 1436.74 2316.85 1472.4 2333.62 1481.05 2372.69 1456.43 2472.15 1508.81 2472.3 1554.27" fill="none" stroke="#fff" stroke-linecap="round" stroke-linejoin="round" stroke-width="8.32"/><path d="M2656.62,2248.86l-269.23-141.79a64.72,64.72,0,0,1-27-87.17L2449,1851.55a64.72,64.72,0,0,1,87.17-27l269.23,141.78a64.72,64.72,0,0,1,27,87.17l-88.66,168.36A64.73,64.73,0,0,1,2656.62,2248.86Z" transform="translate(-279.24 -382.2)" fill="none" stroke="#fff" stroke-linecap="round" stroke-linejoin="round" stroke-width="8.32"/><polygon points="2341.18 1689.95 2315.33 1676.33 2328.94 1650.48 2301.41 1635.98 2287.8 1661.84 2261.94 1648.22 2247.44 1675.75 2273.3 1689.37 2259.68 1715.22 2287.21 1729.72 2300.83 1703.87 2326.68 1717.48 2341.18 1689.95" fill="#fff"/><circle cx="2570.68" cy="2070.51" r="87.91" transform="translate(-990.37 2041.98) rotate(-45)" fill="none" stroke="#fff" stroke-miterlimit="10" stroke-width="9.44"/><path d="M1847.9,2718.54c20.78-18.3,463.35-842.71,462.53-1006" transform="translate(-279.24 -382.2)" fill="none" stroke="#6bb6fb" stroke-miterlimit="10" stroke-width="11.32"/><path d="M2308.17,1729.72s108.24-194.81,20.1-405.89C2328.27,1323.83,2243.52,1492,2308.17,1729.72Z" transform="translate(-279.24 -382.2)" fill="#6bb6fb"/><path d="M2265.53,1884.24s204.24-89.18,262.25-310.45C2527.78,1573.79,2358.36,1656.07,2265.53,1884.24Z" transform="translate(-279.24 -382.2)" fill="#6bb6fb"/><path d="M2164,2111.48s219.7-37.41,329.26-238.21C2493.3,1873.27,2309.06,1912.35,2164,2111.48Z" transform="translate(-279.24 -382.2)" fill="#6bb6fb"/><path d="M2068.57,2314.86s219.22,40.16,391-110.93C2459.53,2203.93,2273.05,2177.5,2068.57,2314.86Z" transform="translate(-279.24 -382.2)" fill="#6bb6fb"/><path d="M1951,2537.6s213.17,65,401.08-65.44C2352.12,2472.16,2169.9,2424.55,1951,2537.6Z" transform="translate(-279.24 -382.2)" fill="#6bb6fb"/><path d="M2223.05,1984.68s54.71-216-84.57-397.49C2138.48,1587.19,2099.65,1771.48,2223.05,1984.68Z" transform="translate(-279.24 -382.2)" fill="#6bb6fb"/><path d="M2126.92,2200.33s54.71-216-84.57-397.5C2042.35,1802.83,2003.52,1987.13,2126.92,2200.33Z" transform="translate(-279.24 -382.2)" fill="#6bb6fb"/><path d="M2017.48,2419.44s54.71-216-84.57-397.49C1932.91,2022,1894.08,2206.24,2017.48,2419.44Z" transform="translate(-279.24 -382.2)" fill="#6bb6fb"/><path d="M1907.1,2617.42s25.4-221.42-136.84-382.66C1770.26,2234.76,1756.36,2422.58,1907.1,2617.42Z" transform="translate(-279.24 -382.2)" fill="#6bb6fb"/><path d="M1334.71,2968.59C1311.82,2953,770.08,2190.1,750.58,2028" transform="translate(-279.24 -382.2)" fill="none" stroke="#6bb6fb" stroke-miterlimit="10" stroke-width="11.32"/><path d="M755,2044.74S623.31,1864.91,684.5,1644.5C684.5,1644.5,789.52,1800.84,755,2044.74Z" transform="translate(-279.24 -382.2)" fill="#6bb6fb"/><path d="M816.5,2192.75s-213.75-63.07-298.85-275.4C517.65,1917.35,696,1977.9,816.5,2192.75Z" transform="translate(-279.24 -382.2)" fill="#6bb6fb"/><path d="M945.48,2405.59s-222.65-9.78-356.34-195.38C589.14,2210.21,776.81,2226.06,945.48,2405.59Z" transform="translate(-279.24 -382.2)" fill="#6bb6fb"/><path d="M1065.52,2595.51S853,2662.64,663.8,2534.1C663.8,2534.1,845.53,2484.66,1065.52,2595.51Z" transform="translate(-279.24 -382.2)" fill="#6bb6fb"/><path d="M1209.86,2801.89s-203.43,91-406.11-15C803.75,2786.87,978.63,2717,1209.86,2801.89Z" transform="translate(-279.24 -382.2)" fill="#6bb6fb"/><path d="M871.15,2287.12S790,2079.57,905.59,1882.19C905.59,1882.19,967.05,2060.22,871.15,2287.12Z" transform="translate(-279.24 -382.2)" fill="#6bb6fb"/><path d="M993.37,2489.13s-81.17-207.56,34.44-404.93C1027.81,2084.2,1089.28,2262.23,993.37,2489.13Z" transform="translate(-279.24 -382.2)" fill="#6bb6fb"/><path d="M1129.23,2692.91s-81.17-207.55,34.44-404.92C1163.67,2288,1225.14,2466,1129.23,2692.91Z" transform="translate(-279.24 -382.2)" fill="#6bb6fb"/><path d="M1263.39,2875.61s-52.76-216.52,88.15-396.71C1351.54,2478.9,1388.71,2663.54,1263.39,2875.61Z" transform="translate(-279.24 -382.2)" fill="#6bb6fb"/><path d="M1213.05,2270.72c4.64-20-84.41-709.09-155.46-807.32" transform="translate(-279.24 -382.2)" fill="none" stroke="#6bb6fb" stroke-miterlimit="10" stroke-width="8.41"/><path d="M1063.64,1474.73S1044.8,1310.33,900.36,1221C900.36,1221,921.87,1359.15,1063.64,1474.73Z" transform="translate(-279.24 -382.2)" fill="#6bb6fb"/><path d="M1104.67,1586.47s84.78-142.12,24.19-300.79C1128.86,1285.68,1062.11,1408.57,1104.67,1586.47Z" transform="translate(-279.24 -382.2)" fill="#6bb6fb"/><path d="M1141.59,1767.54s116.49-117.54,95.87-286.13C1237.46,1481.41,1143.1,1584.63,1141.59,1767.54Z" transform="translate(-279.24 -382.2)" fill="#6bb6fb"/><path d="M1171.84,1931.6s149.72-70.49,188.13-235.94C1360,1695.66,1235.94,1760.29,1171.84,1931.6Z" transform="translate(-279.24 -382.2)" fill="#6bb6fb"/><path d="M1197.13,2116.89S1353.94,2064,1411,1904C1411,1904,1280.42,1954.05,1197.13,2116.89Z" transform="translate(-279.24 -382.2)" fill="#6bb6fb"/><path d="M1122.42,1665.47S1062.09,1511.38,899.58,1462C899.58,1462,955.78,1590.07,1122.42,1665.47Z" transform="translate(-279.24 -382.2)" fill="#6bb6fb"/><path d="M1157.57,1837.23s-60.33-154.1-222.84-203.47C934.73,1633.76,990.92,1761.82,1157.57,1837.23Z" transform="translate(-279.24 -382.2)" fill="#6bb6fb"/><path d="M1186.18,2016.83s-60.33-154.1-222.84-203.47C963.34,1813.36,1019.53,1941.42,1186.18,2016.83Z" transform="translate(-279.24 -382.2)" fill="#6bb6fb"/><path d="M1205.09,2184.07s-80.35-144.67-248-171.92C957.09,2012.15,1029.87,2131.57,1205.09,2184.07Z" transform="translate(-279.24 -382.2)" fill="#6bb6fb"/><path d="M2349.27,3215.34c46.7-15.57,196.4-88,163.69-168.68-2.57-6.34-6.35-12.09-8.22-18.71-4.74-16.85,4.32-35.28,17.08-45.91s28.62-15.46,43.72-21.3c32.59-12.6,68.57-42.22,61-79.34-2.73-13.28-10.89-24.64-13.49-38-6.39-32.75,21.24-59.86,43.06-83.15s39.89-64.45,17.57-87.23c-9.43-9.62-23.52-11.9-36.18-9.54-60.9,11.33-83.37,107.44-143.83,121.29-12.74,2.92-26,1.72-38.79,4.34-28.79,5.88-53,32.77-58.11,64.51-4.51,28.09,4.37,59.41-8.46,84.17-14.66,28.28-46.47,27.77-67.59,47a60.81,60.81,0,0,0-4.27,4.34c-13.69,15.29-116.09,199.32-122.79,219.07Z" transform="translate(-279.24 -382.2)" fill="#98def6"/><path d="M2666.62,2667.67c-8.69-5-19.34-6-29.15-4.14-60.9,11.33-83.37,107.44-143.83,121.29-12.74,2.92-26,1.72-38.8,4.33-28.78,5.89-53,32.78-58.1,64.52-4.51,28.09,4.37,59.41-8.46,84.17-14.66,28.28-46.47,27.77-67.59,47a60.81,60.81,0,0,0-4.27,4.34c-47.8,53.52-116.09,199.32-122.79,219.07l77.82,4.25C2274,3209.47,2608.35,2759.66,2666.62,2667.67Z" transform="translate(-279.24 -382.2)" fill="#7ac9db"/><path d="M2055.08,2875.07c30.2-35.88,78.78-55,90.52-104.42,10.43-43.89-13.63-91.42-16.7-138-3.47-52.65,23.09-103.6,63.74-122.23,18.05-8.28,38.15-10.58,56-19.32,84.84-41.53,84.77-203.21,171.14-240.83,18-7.82,39.64-8.65,57,3.82,41,29.51,28.54,101.43,4.27,145.83s-55.82,96.78-35,147.4c8.48,20.57,24.53,36.23,33.18,56.71,24.19,57.27-18.88,116.34-62.83,147-20.37,14.21-42.2,27-57.43,48.17s-22.27,53.67-9.37,79.25c5.06,10,12.67,18.09,18.68,27.45,36.69,57.15-55.67,270.46-102.52,308.05l-158.47,1.42C2050.88,3160.52,2007.52,2931.56,2055.08,2875.07Z" transform="translate(-279.24 -382.2)" fill="#7ac9db"/><path d="M2476.77,2254.08a49.84,49.84,0,0,0-15-7.34,874.63,874.63,0,0,0-40.44,101.13c-12.06,36.6-23.93,72.46-39.06,107.35-29.9,68.92-62.21,135.31-87.39,207.26-24.6,70.3-46.47,142.24-63.13,216.31-16.51,73.4-80,329-82,338l116-2.83c46.84-37.59,139.21-250.9,102.52-308.05-6-9.36-13.62-17.4-18.68-27.45-12.9-25.58-5.85-58.09,9.37-79.25s37.06-34,57.43-48.17c44-30.64,87-89.71,62.83-147-8.65-20.48-24.7-36.14-33.19-56.71-20.86-50.61,10.69-103,35-147.4S2517.79,2283.59,2476.77,2254.08Z" transform="translate(-279.24 -382.2)" fill="#98def6"/><path d="M804.41,3211.34c-31.83-13.66-99.52-29.44-87.76-76.14.93-3.67,2.5-7.11,3.05-10.88,1.4-9.59-4.3-18.93-11.4-23.73s-15.42-6.17-23.43-8.15c-17.27-4.3-37.27-17.61-35.63-38.51.58-7.48,4-14.34,4.57-21.82,1.28-18.41-14.34-31-26.79-42s-24.07-32-14.11-46.28c4.2-6,11.2-8.37,17.76-8.09,31.54,1.33,48.67,52.07,80.14,54.82,6.62.58,13.28-1.13,19.91-.72,14.94.92,28.82,13.69,33.3,30.63,4,15,1.33,32.82,9.32,45.33,9.12,14.29,25.21,11.48,37.06,20.31a30,30,0,0,1,2.42,2c7.85,7.26,73.82,100.93,78.4,111.19Z" transform="translate(-279.24 -382.2)" fill="#7ac9db"/><path d="M616.15,2940.31a21.28,21.28,0,0,1,14.52-4.59c31.54,1.34,48.67,52.08,80.14,54.83,6.62.58,13.28-1.13,19.91-.72,14.94.92,28.82,13.69,33.3,30.63,4,15,1.33,32.82,9.32,45.33,9.12,14.29,25.21,11.48,37.06,20.31.79.59,1.56,1.32,2.42,2,19.89,16.27,61.08,75,78.4,111.19l-38.14,12.37C851.61,3210.23,651.17,2985.94,616.15,2940.31Z" transform="translate(-279.24 -382.2)" fill="#98def6"/><path d="M1039.17,2982.23c-20.83-25.05-54.4-38.33-62.43-72.89-7.14-30.69,9.59-64,11.8-96.58,2.5-36.84-15.78-72.43-43.87-85.4C932.2,2721.61,918.3,2720,906,2714c-58.62-28.89-58.27-142-118-168.16-12.4-5.44-27.41-6-39.41,2.77-28.44,20.72-19.93,71-3.22,102s38.44,67.61,23.91,103c-5.9,14.41-17,25.4-23.06,39.74-16.84,40.11,12.85,81.35,43.2,102.71,14.06,9.9,29.14,18.81,39.64,33.59s15.31,37.51,6.34,55.43c-3.52,7-8.8,12.68-13,19.24-25.49,40,33.2,174,65.54,200.2l117.53-2.94C1044.63,3163.15,1072,3021.66,1039.17,2982.23Z" transform="translate(-279.24 -382.2)" fill="#98def6"/><path d="M748.58,2548.56a34.5,34.5,0,0,1,10.4-5.16,612.19,612.19,0,0,1,27.79,70.67c8.27,25.59,16.42,50.65,26.83,75,20.55,48.16,42.78,94.55,60.07,144.84,16.89,49.13,31.89,99.42,43.28,151.21,11.29,51.32,48.82,209.45,50.19,215.73l-77.8,4.07c-32.33-26.21-92.41-160.56-66.92-200.6,4.17-6.56,9.45-12.2,13-19.24,9-17.92,4.15-40.65-6.34-55.43s-25.58-23.69-39.64-33.59c-30.35-21.36-60-62.6-43.2-102.71,6-14.34,17.16-25.33,23.06-39.74,14.53-35.44-7.2-72-23.91-103S720.14,2569.28,748.58,2548.56Z" transform="translate(-279.24 -382.2)" fill="#7ac9db"/><g clip-path="url(#clip-path)"><rect x="339.82" y="2607.07" width="290.42" height="121.21" transform="translate(-1348.07 63.48) rotate(-24.66)" fill="none" stroke="#fff" stroke-linecap="round" stroke-linejoin="round" stroke-width="11.58"/><polygon points="247.4 2251.87 222.64 2263.24 211.35 2238.65 179.64 2253.2 190.93 2277.8 166.47 2289.03 180.14 2318.79 204.6 2307.56 214.99 2330.21 246.7 2315.65 236.31 2293 261.07 2281.63 247.4 2251.87" fill="#fff"/></g><path d="M327,2516.66,349.59,2564l-11.48,5.27c-23.35,10.72-34.67,36-25.28,56.43l101,220c9.38,20.44,35.92,28.32,59.27,17.6L645.83,2784c23.35-10.72,34.67-36,25.28-56.43l-101-220c-9.38-20.44-35.92-28.32-59.27-17.6l-11.48,5.26L476.72,2450" transform="translate(-279.24 -382.2)" fill="none" stroke="#fff" stroke-linecap="round" stroke-linejoin="round" stroke-width="11.43"/><path d="M468.24,2451.08l-131.87,60.54a35.49,35.49,0,0,1-47.06-17.44l-1.11-2.42a35.49,35.49,0,0,1,17.44-47.06l131.87-60.54a35.49,35.49,0,0,1,47.06,17.44l1.11,2.42A35.49,35.49,0,0,1,468.24,2451.08Z" transform="translate(-279.24 -382.2)" fill="none" stroke="#fff" stroke-miterlimit="10" stroke-width="11.43"/><path d="M2236.91,403.87h0a43.24,43.24,0,0,1,60.33-10l102.5,73.32a43.25,43.25,0,0,1,10,60.33h0a43.25,43.25,0,0,1-60.33,10l-102.5-73.32A43.25,43.25,0,0,1,2236.91,403.87Z" transform="translate(-279.24 -382.2)" fill="none" stroke="#fff" stroke-linecap="round" stroke-linejoin="round" stroke-width="7.16"/><path d="M2299,501.41l42.15,30.16c29.45,22.75,54.75,15.36,68.65-4.06h0c13.89-19.42,14.22-43.26-18.34-66.28l-42.15-30.15Z" transform="translate(-279.24 -382.2)" fill="#fff"/><path d="M2228.61,1398.09h0A43.24,43.24,0,0,1,2185,1441l-126-1a43.24,43.24,0,0,1-42.91-43.57h0a43.24,43.24,0,0,1,43.57-42.91l126,1A43.24,43.24,0,0,1,2228.61,1398.09Z" transform="translate(-279.24 -382.2)" fill="none" stroke="#fff" stroke-linecap="round" stroke-linejoin="round" stroke-width="7.16"/><path d="M2121.74,1354l-51.83-.4c-37.17-1.65-53.62,18.95-53.8,42.83h0c-.18,23.88,13.27,43.56,53.14,43.65l51.82.4Z" transform="translate(-279.24 -382.2)" fill="#fff"/><path d="M679,669.71h0a43.25,43.25,0,0,1,30.43-53.05l121.63-33a43.24,43.24,0,0,1,53,30.42h0a43.24,43.24,0,0,1-30.42,53l-121.64,33A43.24,43.24,0,0,1,679,669.71Z" transform="translate(-279.24 -382.2)" fill="none" stroke="#fff" stroke-linecap="round" stroke-linejoin="round" stroke-width="7.16"/><path d="M793.82,683.39l50-13.56c36.25-8.4,46.55-32.67,40.3-55.72h0c-6.25-23.05-24.5-38.39-62.92-27.74l-50,13.56Z" transform="translate(-279.24 -382.2)" fill="#fff"/><path d="M1994.72,2357.39s-102.88-16.06-76.56-94.06,86.13-105.54,86.13-105.54" transform="translate(-279.24 -382.2)" fill="none" stroke="#f6f5fa" stroke-linecap="round" stroke-linejoin="round" stroke-width="21.09"/><path d="M2154.8,3202.63c-43.42-446.18-182.21-720.71-182.21-720.71l-14.67-106.77-755.18,5.07-6.45,101.7s-122.42,281.87-213.95,720.71C979.64,3215.55,2154.8,3202.63,2154.8,3202.63Z" transform="translate(-279.24 -382.2)" fill="#42234a"/><path d="M1359.35,1517.35c4.53,0,411.79,7.51,413.3,19s-9.05,493-9.05,493l-399.72-2.88Z" transform="translate(-279.24 -382.2)" fill="#93bfe3"/><polygon points="1276.73 1258.08 1249.06 1926.65 1355.46 1968.66 1451.18 1926.65 1358.5 1258.08 1276.73 1258.08" fill="#006189"/><path d="M1637.73,1640.29H1556l-18.85-98c-2.32-12.08,6.1-23.45,17.39-23.45h82.34c11.1,0,19.48,11,17.47,23Z" transform="translate(-279.24 -382.2)" fill="#066b8d"/><path d="M1694.09,1418s-45.2,434.2-52.43,498c-20,175.95-5.16,1286.67-5.16,1286.67s581.2,14.69,581.2-2.52c0-10.1-69.44-326.23-105.66-587.91-27.05-195.43-76.93-325-76.93-355.79,0-74.59,124.07-621.7-23.87-739C1911.51,1438.39,1694.09,1418,1694.09,1418Z" transform="translate(-279.24 -382.2)" fill="#fff"/><g clip-path="url(#clip-path-2)"><path d="M1803.19,1416.47c7.35,48.2,28.59,93.32,35.93,141.52q2.06-3.6,4.09-7.21c-19.9,4.54-39.63,10.11-58.62,17.64-18.53,7.34-36.74,16.37-51.67,29.77-2.57,2.31-2.22,7.73,1.18,9.2,20,8.63,37.07,24.62,53.76,38.22s33.93,29.64,54,38.29l-2.1-8c-34.56,55.15-74.12,106.79-111,160.33-33.2,48.16-63.46,98.74-81.58,154.67a422.69,422.69,0,0,0-19.37,104.68c-.46,7.53,11.26,7.5,11.71,0,3.7-60.53,20.82-118.48,49-172,27.81-52.79,63.82-100.69,98.46-149.08,21.73-30.35,43.06-61,62.89-92.64,1.54-2.44.75-6.78-2.1-8-20-8.63-37.07-24.62-53.76-38.22s-33.93-29.64-54-38.28c.39,3.06.79,6.13,1.18,9.2,14.11-12.67,31.84-21.15,49.41-27.9a407.55,407.55,0,0,1,55.72-16.49c3.34-.77,4.55-4.2,4.09-7.21-7.34-48.2-28.58-93.32-35.93-141.52-1.13-7.44-12.42-4.28-11.3,3.11Z" transform="translate(-279.24 -382.2)" fill="#cbd6f9"/><polygon points="1710.4 1337.85 1746.31 2108.5 1893.91 2096.6 1710.4 1337.85" fill="#cbd6f9"/><path d="M1621.81,2356.2c6,0,190.68,128.46,202.13,150.42,9,17.35,57.35,108.62,57.35,108.62l217.18-134.66-455.54-107" transform="translate(-279.24 -382.2)" fill="#cbd6f9"/><path d="M2005.7,2529.76s95,208.27,192.32,214.77l-22.63,54.24c-6.86-3.7-165.34-75.6-208.15-243Z" transform="translate(-279.24 -382.2)" fill="none" stroke="#cbd6f9" stroke-miterlimit="10" stroke-width="12.19"/></g><rect x="1541.68" y="1516.97" width="185.53" height="46.28" rx="9.6" fill="none" stroke="#cbd6f9" stroke-miterlimit="10" stroke-width="13.38"/><path d="M1347.11,1697s25.82-251.25,108-291c132.91-64.29,242-33.15,269.94,81.6,18.56,76.24,45.08,339.13,43.89,340.43" transform="translate(-279.24 -382.2)" fill="none" stroke="#6b6966" stroke-linecap="round" stroke-linejoin="round" stroke-width="23.44"/><path d="M1763.53,1106.05s-102.22-116.82-89-201.51c13.92-88.88,67.49-86.39,102.09-51.35s47.64,176.91,29.77,242.63c-4.54,16.7-10.63,52.88-10.63,52.88Z" transform="translate(-279.24 -382.2)" fill="#16333a"/><path d="M1413.94,1166s67.49-133.61,32.37-206.64c-36.85-76.66-87.72-59.79-111.75-18.65s.87,173.11,35.41,227.72c8.77,13.88,24.18,45,24.18,45Z" transform="translate(-279.24 -382.2)" fill="#16333a"/><circle cx="1779.32" cy="1107.78" r="57.6" transform="translate(-541.4 1200.43) rotate(-45)" fill="#ffa07a"/><circle cx="1397.32" cy="1138.04" r="57.6" transform="translate(-674.69 939.17) rotate(-45)" fill="#ffa07a"/><path d="M1565.89,1509.5c59.47,6,89.82-24,94.29-85l15.45-210.72L1494.69,1194l-15.45,210.71C1475.92,1465.88,1502.34,1503.11,1565.89,1509.5Z" transform="translate(-279.24 -382.2)" fill="#ffa07a"/><path d="M1625.89,1332.52c-23.07,13.35-49.84,17.51-75.05,20.12a267.55,267.55,0,0,1-67.66-1.63l11.51-157,180.94,19.78-6,81.32C1655.91,1309,1642.05,1323.16,1625.89,1332.52Z" transform="translate(-279.24 -382.2)" fill="#00373b"/><path d="M1383.5,1113.86c9.87,124.58,64.71,206.94,221.84,209.41,143.16,2.24,196-117.15,186.11-241.73s-26.71-219.3-221.85-209.41C1403.66,880.54,1373.63,989.28,1383.5,1113.86Z" transform="translate(-279.24 -382.2)" fill="#ffa07a"/><line x1="1549.08" y1="721.69" x2="1512.72" y2="730.79" fill="none" stroke="#1c1b1b" stroke-linecap="round" stroke-linejoin="round" stroke-width="12.17"/><line x1="1072.1" y1="759.48" x2="1122.79" y2="763.04" fill="none" stroke="#1c1b1b" stroke-linecap="round" stroke-linejoin="round" stroke-width="12.17"/><polyline points="1308.24 715.5 1329.05 786.02 1297.83 785.66" fill="none" stroke="#1c1b1b" stroke-linecap="round" stroke-linejoin="round" stroke-width="8.12"/><ellipse cx="1679.8" cy="1119.26" rx="17.87" ry="18.53" transform="translate(-318.09 -321.58) rotate(-2.04)" fill="#282b2d"/><ellipse cx="1504.89" cy="1125.24" rx="17.87" ry="18.53" transform="translate(-318.43 -327.79) rotate(-2.04)" fill="#282b2d"/><circle cx="1423.12" cy="804.53" r="34.85" fill="#ff8b69"/><circle cx="1483.76" cy="1189.37" r="34.85" transform="translate(-430.79 1777.68) rotate(-69.4)" fill="#ff8b69"/><path d="M1611.45,1208.13a46.76,46.76,0,0,1-31.61,4.14c-18.15-3.92-40.23-23.58-40.23-23.58" transform="translate(-279.24 -382.2)" fill="none" stroke="#1c1b1b" stroke-linecap="round" stroke-linejoin="round" stroke-width="8.12"/><rect x="1454.65" y="1048.4" width="85.43" height="21.14" rx="8.98" transform="translate(2715.5 1735.74) rotate(180)" fill="#282b2d"/><rect x="1632.7" y="1044.35" width="85.43" height="21.14" rx="8.98" transform="translate(3071.6 1727.62) rotate(180)" fill="#282b2d"/><path d="M1386.88,1417.92s214.89,301.68,246.8,523.54-29.89,1261.17-29.89,1261.17H954.66s80.37-685,139.21-959.24c29.07-135.45-48.27-474.38-48.27-474.38s-56.2-205.78,96.54-277.69C1268.09,1432,1386.88,1417.92,1386.88,1417.92Z" transform="translate(-279.24 -382.2)" fill="#fff"/><g clip-path="url(#clip-path-3)"><path d="M1244.79,1366.58a1467.26,1467.26,0,0,0-1.16,193.89c.21,3.44,2.54,5.49,5.86,5.86a515.25,515.25,0,0,1,115.54,27c-1.43-1.88-2.87-3.76-4.3-5.65a227.84,227.84,0,0,1-43,137.54c-2.17,3,.06,7.81,3.5,8.61A610.41,610.41,0,0,1,1524.35,1823c60.49,41,114,92.79,155.9,152.65A552.35,552.35,0,0,1,1739,2082.54c2.83,6.88,14.17,3.87,11.3-3.12-28.24-68.8-70.17-131.39-122-184.64a628.19,628.19,0,0,0-183.22-130.32,613.6,613.6,0,0,0-120.69-42l3.5,8.61a238.37,238.37,0,0,0,44.57-143.46,6.07,6.07,0,0,0-4.3-5.65,528.78,528.78,0,0,0-118.66-27.4l5.86,5.86a1467.26,1467.26,0,0,1,1.16-193.89c.54-7.53-11.18-7.49-11.72,0Z" transform="translate(-279.24 -382.2)" fill="#cbd6f9"/><path d="M1103.81,2715.81c76.07-20.55,146.22-63.09,198.94-121.74a391.16,391.16,0,0,0,39.72-52.48l-8,2.11c16.59,7.24,28.43,24.92,35.85,40.9v-5.91l-1.53,2-1.24,1.6-2.73,3.49q-7.17,9.16-14.53,18.18c-11.26,13.79-22.67,27.86-35.72,40-8,7.43-17.12,13.73-25.83,20.27-10.35,7.77-20.82,15.39-31.47,22.76a632.13,632.13,0,0,1-63,38.7,589,589,0,0,1-81.06,35.18c-7.07,2.48-4,13.81,3.11,11.3a610.5,610.5,0,0,0,140.42-70.63c21.32-14.45,42.75-29.56,62.53-46.09,13.25-11.07,24.36-25.1,35.32-38.35q13.23-16,25.87-32.5c1.31-1.72.81-4.15,0-5.91-8.17-17.6-21.84-37.16-40.06-45.11-3-1.31-6.16-.84-8,2.1-40.6,64.25-100.75,115.05-169.73,146.6a398.79,398.79,0,0,1-61.93,22.23c-7.27,2-4.18,13.27,3.12,11.3Z" transform="translate(-279.24 -382.2)" fill="#cbd6f9"/><path d="M1092.75,2710.66c3.89,10.19,6.24,21.07,9,31.62,2.31,8.92,3.9,18.84,7.94,27.2,3.29,6.78,13.4.85,10.12-5.92-.24-.5.35,1.09-.18-.5-.26-.79-.52-1.57-.76-2.36-.67-2.15-1.27-4.32-1.86-6.49-1.48-5.39-2.86-10.8-4.26-16.21-2.64-10.16-4.93-20.63-8.68-30.46-2.67-7-14-3.95-11.3,3.12Z" transform="translate(-279.24 -382.2)" fill="#cbd6f9"/><path d="M1150.64,2294.67c19.94-23,79.78-527.86,79.78-527.86L1090.8,1969.54Z" transform="translate(-279.24 -382.2)" fill="#cbd6f9"/><path d="M1035,2324.38c-9,21.7,63.26,129.62,149.34,137.4,239.83,21.7,493.24-79.54,493.24-79.54L1646,2278.1l-190.8,47.17-397.48-38.49Z" transform="translate(-279.24 -382.2)" fill="#cbd6f9"/><path d="M1321.18,1731.43s237.69,86.38,280.25,212.61c26.13,77.51,47.87,284.33,47.87,284.33l12-1.28s-6.64-248.63-35.9-318.75c-12.15-29.12-43.88-70.76-128.65-110.93S1321.18,1731.43,1321.18,1731.43Z" transform="translate(-279.24 -382.2)" fill="#cbd6f9"/></g><path d="M1352.94,1423.34s118.33-20.22,118.79-15.91c5.28,49.9,112.37,110.64,112.37,110.64l102.57-101.24,73.16,10.13c-32,61.36-59.58,190.55-59.58,190.55s-70.9-90-118.41-86.42c0,0-50.16,8.32-94.28,83.16,0,0-54-71-73.53-99.79C1399.79,1493.48,1352.94,1423.34,1352.94,1423.34Z" transform="translate(-279.24 -382.2)" fill="#81b1de"/><path d="M1818.6,2059.36s136.63-51.07,181.59-55c64.36-5.6,216.25,36.64,227.9,96.42,10.43,53.51,22.38,128.22-46.31,144.52-32,7.61-93.54-20.61-159.11-20.23-75,.45-154.15,29.53-178.88,41.36Z" transform="translate(-279.24 -382.2)" fill="#ffa07a"/><path d="M1873.67,2029.19l-52.05,18.6,25.19,207.08a366.6,366.6,0,0,1,36.65-14.51C1881.43,2169.87,1873.67,2029.19,1873.67,2029.19Z" transform="translate(-279.24 -382.2)" fill="#00373b"/><line x1="1950.58" y1="1716.15" x2="1755.58" y2="1661.23" fill="none" stroke="#191918" stroke-linecap="round" stroke-linejoin="round" stroke-width="10.34"/><line x1="1955.11" y1="1764.12" x2="1760.12" y2="1709.2" fill="none" stroke="#191918" stroke-linecap="round" stroke-linejoin="round" stroke-width="10.34"/><line x1="1949.58" y1="1816.04" x2="1754.58" y2="1761.12" fill="none" stroke="#191918" stroke-linecap="round" stroke-linejoin="round" stroke-width="10.34"/><path d="M1693.82,1422c14.22,17.37,24.88,39.26,31.27,65.54,18.56,76.24,45.08,339.13,43.89,340.43" transform="translate(-279.24 -382.2)" fill="none" stroke="#6b6966" stroke-linecap="round" stroke-linejoin="round" stroke-width="23.44"/><path d="M1361,1701.82s11.92-256.06,94.14-295.84c2.22-1.07,4.44-2.12,6.64-3.14" transform="translate(-279.24 -382.2)" fill="none" stroke="#6b6966" stroke-linecap="round" stroke-linejoin="round" stroke-width="23.44"/><path d="M1441.85,1420s-14,136.42,23.94,266.48" transform="translate(-279.24 -382.2)" fill="none" stroke="#6b6966" stroke-linecap="round" stroke-linejoin="round" stroke-width="23.44"/><path d="M1396.23,2112.53s-81.66,5.68-84.15-59.71c-3-79.61,45.48-424.61,93.24-421.3,66.85,4.65,185,413,130.39,456.13-31.09,24.57-51.55,23.22-51.55,23.22" transform="translate(-279.24 -382.2)" fill="none" stroke="#6b6966" stroke-linecap="round" stroke-linejoin="round" stroke-width="9.51"/><ellipse cx="1102.32" cy="1732.57" rx="27.91" ry="26.77" fill="#243f42"/><ellipse cx="1215" cy="1728.67" rx="27.91" ry="26.77" fill="#243f42"/><ellipse cx="1493.73" cy="1499.36" rx="55.85" ry="53.55" fill="#6b6966"/><ellipse cx="1492.73" cy="1499.36" rx="38.9" ry="37.29" fill="#d6d2cc"/><path d="M1757.19,2216.69s-100-102.84-138.74-125.07c-55.46-31.81-211.42-56.93-249-7.91-33.6,43.87-78.17,106.22-23.65,149.48,25.42,20.18,93.6,20.33,152.5,47.95,67.42,31.61,149.61,73.94,166.55,94.88Z" transform="translate(-279.24 -382.2)" fill="#ffa07a"/><line x1="1087.29" y1="1710.27" x2="1287.83" y2="1741.89" fill="none" stroke="#191918" stroke-linecap="round" stroke-linejoin="round" stroke-width="10.34"/><line x1="1061.5" y1="1751.61" x2="1262.03" y2="1783.22" fill="none" stroke="#191918" stroke-linecap="round" stroke-linejoin="round" stroke-width="10.34"/><line x1="1243.54" y1="1832.31" x2="1043" y2="1800.7" fill="none" stroke="#191918" stroke-linecap="round" stroke-linejoin="round" stroke-width="10.34"/><path d="M1903.88,2499.39s-271.51-143.19-321.29-156.2c-76.24-19.94,104.08-156.2,104.08-156.2s122.18,47.72,271.51,82.44C1989.28,2276.65,1903.88,2499.39,1903.88,2499.39Z" transform="translate(-279.24 -382.2)" fill="#ffa07a"/><path d="M1989.86,1514.46c15.53-9.92,27.15-4.34,67.88,58.57,32.46,50.15,246,498.5,250.53,618.57,3.78,99-121.05,207.68-427,363.65L1772.65,2221.7s253.41-91.12,267-125.83C2063.84,2034,1935.56,1549.17,1989.86,1514.46Z" transform="translate(-279.24 -382.2)" fill="#fff"/><g clip-path="url(#clip-path-4)"><path d="M1788.49,2369.22c13.58-8.68,168.81-37.13,168.81-37.13L1896.92,2166l-139.64,83Z" transform="translate(-279.24 -382.2)" fill="#cbd6f9"/></g><line x1="1632.19" y1="1788.87" x2="1807.16" y2="1696.31" fill="none" stroke="#191918" stroke-linecap="round" stroke-linejoin="round" stroke-width="10.34"/><path d="M1371.07,2117S1248,1680,1210,1596.15c-23.51-52-74.76-84-128.31-60.38-20.18,8.9-57.87,42.77-78,83-64.07,128.13-6.48,468.12,57.31,643.47,67.88,186.57,67.36,272.79,854.75,47.17L1817.66,2000Z" transform="translate(-279.24 -382.2)" fill="#fff"/><line x1="1006.29" y1="1445.42" x2="1099.38" y2="1775.02" fill="none" stroke="#191918" stroke-linecap="round" stroke-linejoin="round" stroke-width="10.34"/><line x1="1091.83" y1="1734.76" x2="1512.01" y2="1625.32" fill="none" stroke="#191918" stroke-linecap="round" stroke-linejoin="round" stroke-width="10.34"/><path d="M1315.14,988.83s-10.89-32.67,141.6-16.33,237.56-26.39,275.68-91.74-4.5-151.55-96-169.69c-105.57-20.94-225.4,73.47-276.23,68-49.93-5.35-50.55-13.55-50.55-13.55s-11.18,44.41,26.94,55.31C1336.63,820.85,1287.91,907.14,1315.14,988.83Z" transform="translate(-279.24 -382.2)" fill="#16333a"/><line x1="240.22" y1="2828.05" x2="2256.18" y2="2828.05" fill="none" stroke="#6ab2f9" stroke-linecap="round" stroke-linejoin="round" stroke-width="13.02"/><path d="M1631.41,2388.68a2672.14,2672.14,0,0,1,.29,273.54q-1.93,38.63-5,77.18c-.57,7.26,10.75,7.23,11.33,0a2674.09,2674.09,0,0,0,7.64-273.44q-.9-38.67-2.93-77.28c-.38-7.25-11.7-7.3-11.32,0Z" transform="translate(-279.24 -382.2)" fill="#cbd6f9"/></svg>