<svg xmlns="http://www.w3.org/2000/svg" viewBox="0 0 3563.71 2356.91"><g style="isolation:isolate"><g id="Layer_1" data-name="Layer 1"><path d="M2582.3,1669.92c0,501.44-406.52,907.92-908,907.92q-32.33,0-64.1-2.25a902.53,902.53,0,0,1-330-87.53c-304.05-146.73-513.8-457.93-513.8-818.14,0-501.44,406.48-908,907.92-908S2582.3,1168.48,2582.3,1669.92Z" transform="translate(-766.42 -621.2)" fill="#f0efff"/><path d="M1792.27,2978.1H4033.8c47.8,0,90.5-38.75,95.37-86.59L4329.68,946c4.84-47.84-30-86.59-77.82-86.59H2010.34c-47.81,0-90.51,38.75-95.38,86.59l-4.81,47.21-195.66,1898.3C1709.61,2939.35,1744.46,2978.1,1792.27,2978.1Z" transform="translate(-766.42 -621.2)" fill="#a6b7f7"/><path d="M1682.29,2773.73h2241.5c47.82,0,90.52-38.77,95.37-86.6l155.63-1534.51c4.85-47.83-30-86.6-77.81-86.6H1855.48c-47.83,0-90.53,38.77-95.38,86.6L1604.47,2687.13C1599.62,2735,1634.46,2773.73,1682.29,2773.73Z" transform="translate(-766.42 -621.2)" fill="#5c76cc" opacity="0.35" style="mix-blend-mode:multiply"/><path d="M2234.17,1865.18V960.68h-472.3c-47.82,0-90.52,38.77-95.37,86.59l-83,817.91Z" transform="translate(-766.42 -621.2)" fill="#5c76cc" opacity="0.35" style="mix-blend-mode:multiply"/><path d="M1636.21,2704.26H3877.72c47.82,0,90.52-38.77,95.37-86.59l155.63-1534.51c4.85-47.83-30-86.6-77.81-86.6H1809.4c-47.82,0-90.52,38.77-95.37,86.6L1558.4,2617.67C1553.55,2665.49,1588.39,2704.26,1636.21,2704.26Z" transform="translate(-766.42 -621.2)" fill="#f0efff"/><path d="M2120.24,2474.49H3499.09c18.7,0,35.39-12.84,37.28-28.68l90.78-763.41a24.09,24.09,0,0,0-23.92-26.93H2217.63c-18.71,0-35.4,12.84-37.28,28.68l-90.57,761.66C2087.9,2461.65,2101.53,2474.49,2120.24,2474.49Z" transform="translate(-766.42 -621.2)" fill="#6479bf"/><path d="M3441.32,2359.44l-1039.06-99.88a22,22,0,0,1-19.77-24L2513.41,873.7a22,22,0,0,1,24-19.78l1039.06,99.89a22,22,0,0,1,19.77,24L3465.3,2339.67A22,22,0,0,1,3441.32,2359.44Z" transform="translate(-766.42 -621.2)" fill="#5c76cc" opacity="0.35" style="mix-blend-mode:multiply"/><path d="M3393.43,2323,2356.57,2202.48a22,22,0,0,1-19.3-24.37l157.94-1359a22,22,0,0,1,24.37-19.29L3556.44,920.3a22,22,0,0,1,19.3,24.37l-157.94,1359A22,22,0,0,1,3393.43,2323Z" transform="translate(-766.42 -621.2)" fill="#fff"/><rect x="1467.12" width="1087.8" height="1412.11" rx="21.98" fill="#5c76cc" opacity="0.35" style="mix-blend-mode:multiply"/><rect x="1414.37" y="46.15" width="1087.8" height="1412.11" rx="21.98" fill="#fff"/><path d="M2696.11,1012a190.36,190.36,0,1,1-379.77,26.74C2309,933.81,2388,842.82,2492.87,835.44S2688.73,907.08,2696.11,1012Z" transform="translate(-766.42 -621.2)" fill="#f0efff"/><path d="M2545,1031.15l7.29-36.07,26.11-5.1C2581.64,1019.43,2575,1049.49,2545,1031.15Z" transform="translate(-766.42 -621.2)" fill="#244272"/><path d="M2582.19,989.91" transform="translate(-766.42 -621.2)" fill="#596bef"/><path d="M2626.58,1172.83a190.44,190.44,0,0,1-270.31-30.23c26.74-21.83,51.11-40.49,60.18-42.5,15.77-3.52,33.86-8.83,52.47-10.91a123.2,123.2,0,0,1,22.73-.63c15.27,1.1,24.46,4.1,29.89,4s8-5.56,13.27-4.7c19.85,3.25,64.93,18.56,74.22,41.38C2612.77,1138.44,2619.22,1154.56,2626.58,1172.83Z" transform="translate(-766.42 -621.2)" fill="#3b82f4"/><path d="M2534.52,1093.28s-6.09,46-39.08,69.63c0,0-31.75-17-27.76-67Z" transform="translate(-766.42 -621.2)" fill="#244272"/><path d="M2532.81,1097.88c-4.27,7.73-14,19.11-34.56,19.85s-27.54-10-29.84-17.34a16.8,16.8,0,0,1,.37-10.8l6.87-18.71,8.68-23.59,46.7,5c-1.17,7.83.37,18.69,2,26.88.47,2.36.95,4.5,1.37,6.28A17.35,17.35,0,0,1,2532.81,1097.88Z" transform="translate(-766.42 -621.2)" fill="#fdc8aa"/><path d="M2533,1079.18c-7.73,24.91-44.76.81-57.39-8.3l8.68-23.59,46.7,5C2529.86,1060.13,2531.4,1071,2533,1079.18Z" transform="translate(-766.42 -621.2)" fill="#efa37d"/><path d="M2551.6,1000.3c.67,35.82-19.3,65.23-44.61,65.72s-46.4-28.17-47.08-64c0-3,0-5.89.25-8.74,2.41-31.74,21.14-56.53,44.37-57,18-.33,33.79,14,41.71,35.14A87.05,87.05,0,0,1,2551.6,1000.3Z" transform="translate(-766.42 -621.2)" fill="#fdc8aa"/><path d="M2517.77,1031.13l-33-2.32s-.39,21.7,13.81,22.5S2516.62,1040.79,2517.77,1031.13Z" transform="translate(-766.42 -621.2)" fill="#fff"/><path d="M2546.24,971.44l-7,31.47s-2.8-15.32-43.64-8.93c-17,2.66-28.21,1.54-35.46-.69,2.41-31.74,21.14-56.53,44.37-57C2522.5,936,2538.32,950.3,2546.24,971.44Z" transform="translate(-766.42 -621.2)" fill="#efa37d"/><path d="M2478.39,906.88c33.75,10.61,38.89,27.58,45.54,29.06s26.18-7.12,42,13.67c5.71,7.47,10.64,23.83,12.45,40.37l-26.11,5.1,1-4.79s-7.45,23.7-13.89,22.75,10.36-32.86-28.28-29.86-58.9,8.35-74.43-19.74S2444.65,896.27,2478.39,906.88Z" transform="translate(-766.42 -621.2)" fill="#244272"/><path d="M2543.24,1000.26a15,15,0,0,1,8.64-9.71c3.49-1.34,8.11-1.43,12.63,3.61,9,10.07-6.44,31.45-18,26.25l-4.54-6.75A35.13,35.13,0,0,1,2543.24,1000.26Z" transform="translate(-766.42 -621.2)" fill="#fdc8aa"/><path d="M3116.86,969.6H2812.32A16.65,16.65,0,0,1,2795.67,953h0a16.65,16.65,0,0,1,16.65-16.65h304.54A16.64,16.64,0,0,1,3133.51,953h0A16.64,16.64,0,0,1,3116.86,969.6Z" transform="translate(-766.42 -621.2)" fill="#ebebff"/><path d="M3116.86,1104.42H2812.32a16.65,16.65,0,0,1-16.65-16.65h0a16.65,16.65,0,0,1,16.65-16.65h304.54a16.64,16.64,0,0,1,16.65,16.65h0A16.64,16.64,0,0,1,3116.86,1104.42Z" transform="translate(-766.42 -621.2)" fill="#ebebff"/><path d="M2542.3,1360.56H2332.52a16.66,16.66,0,0,1-16.66-16.66h0a16.66,16.66,0,0,1,16.66-16.65H2542.3A16.65,16.65,0,0,1,2559,1343.9h0A16.65,16.65,0,0,1,2542.3,1360.56Z" transform="translate(-766.42 -621.2)" fill="#ebebff"/><path d="M2679.93,1461.75H2332.52a16.65,16.65,0,0,1-16.66-16.65h0a16.65,16.65,0,0,1,16.66-16.65h347.41a16.65,16.65,0,0,1,16.66,16.65h0A16.65,16.65,0,0,1,2679.93,1461.75Z" transform="translate(-766.42 -621.2)" fill="#ebebff"/><path d="M3116.86,1686.56H2332.52a16.66,16.66,0,0,1-16.66-16.66h0a16.66,16.66,0,0,1,16.66-16.65h784.34a16.65,16.65,0,0,1,16.65,16.65h0A16.65,16.65,0,0,1,3116.86,1686.56Z" transform="translate(-766.42 -621.2)" fill="#ebebff"/><rect x="2029.25" y="589.96" width="337.84" height="250.4" rx="19.66" fill="#33da82"/><circle cx="2198.17" cy="715.16" r="74.96" fill="#fff"/><polygon points="2231.96 705.78 2207.55 705.78 2207.55 681.38 2188.8 681.38 2188.8 705.78 2164.39 705.78 2164.39 724.54 2188.8 724.54 2188.8 748.95 2207.55 748.95 2207.55 724.54 2231.96 724.54 2231.96 705.78" fill="#33da82"/><path d="M3476.44,2487.39H2097.59c-18.71,0-35.4-15.16-37.28-33.87l-94-933.27H3379.05c18.7,0,35.39,15.17,37.28,33.87l90.57,899.4C3508.78,2472.23,3495.14,2487.39,3476.44,2487.39Z" transform="translate(-766.42 -621.2)" fill="#a6b7f7"/><path d="M2433.83,1382.37H1986.31c-18.7,0-32.34,15.16-30.46,33.86l10.48,104h566.75L2466.56,1402C2459.81,1390,2447,1382.37,2433.83,1382.37Z" transform="translate(-766.42 -621.2)" fill="#6479bf"/><path d="M4070.87,2978.1h-926.1l42.16-146.84h915.84a31.53,31.53,0,0,1,31.53,31.52v51.9A63.42,63.42,0,0,1,4070.87,2978.1Z" transform="translate(-766.42 -621.2)" fill="#f0efff"/><path d="M217,2210.06H2432.79a23.56,23.56,0,0,1,23.56,23.56v71.2a52.09,52.09,0,0,1-52.09,52.09H262.61a76,76,0,0,1-76-76v-40.5A30.38,30.38,0,0,1,217,2210.06Z" fill="#6479bf"/><circle cx="3081.7" cy="2904.68" r="23.99" transform="translate(-1643.41 779.22) rotate(-22.5)" fill="#5c76cc" opacity="0.35" style="mix-blend-mode:multiply"/><circle cx="2989.35" cy="2904.68" r="23.99" transform="translate(-1290.85 4525.51) rotate(-76.72)" fill="#5c76cc" opacity="0.35" style="mix-blend-mode:multiply"/><path d="M1922.88,2178l-66.78-9.53.06-.63.7-6.95,2.7-26.91c1.5-15-9.68-28.92-25-31.09l-37.17-5.32c.72-17.71-3.07-36.56-4.48-45.37-.51-3.4-.15-8.24.69-13.53.36-2.17.78-4.45,1.27-6.71,4.39.24,7.39.39,8.26.39,3.91,0,13.81-214.11,23.16-294.69a84.52,84.52,0,0,0-13.92-56.53c-28.45-42.81-85.7-129.23-124.67-190.3C1648,1428.53,1576,1389.93,1541.17,1374a65.76,65.76,0,0,0-6.85-6.71,74.16,74.16,0,0,0-15.31-9.44c-3.18-11-6.52-22.73-9.14-32.32-1.35-4.9-2.52-9.26-3.48-12.78a117.41,117.41,0,0,0,14-34.1c7.42-2.52,20.77-10.37,23.15-34.21,2.43-24.6-11.79-21.92-19.43-18.83-.24-2.49-.51-4.93-.84-7.33,6.29-8.12,8.9-37.32,6.2-42.49-2.8-5.38,20.92-35,4.69-47.62s-113.93-18.86-149.11,15.54c-28.71,28.08-10.1,58.09-5.68,67.11a3.11,3.11,0,0,0,1.47,1.38,145.05,145.05,0,0,0-.54,16.39c-7.94-3.07-22.25-5.62-17.53,18.85,4.81,25,20,32.39,27.36,34.55a125.77,125.77,0,0,0,18.89,34.58l-5.51,37.22-.3,1.9-1,6.43a.33.33,0,0,1-.12.06l-6.86,3.34a27.66,27.66,0,0,1,6.86-3.34l1.08-6.49c-6.4,1.77-15.69,6.34-25,18.49-38.85,20.06-111.56,60.5-118.29,85.48l-13,35.18-65.28,176-125.65-149.44-5.59,3.4c-5.08-7.1-10.86-15.15-11.67-16.3-1.38-2,9.47-44.5-5.23-55.8s-10.1,23.75-19.85,20.68-26.94-45.52-40.11-41.46-45.37,27.69-36.89,52.77,43.27,46.18,54.18,56.17c2.65,2.43,5.87,7.78,9.17,14.49l-8.26,5s144.74,296,212.12,242.14q10.07-8.08,18.83-15.82a411.73,411.73,0,0,0,48-49.58c5.54,135.21,8.66,277-3.3,315.8-23.7,76.76-77.7,290.55-77.7,290.55a605.43,605.43,0,0,0,99.8,61.33l-2.56,23-6.64,60.28a897.47,897.47,0,0,0,116.09,46.4l13.17-59.78,7.72-35.06a150,150,0,0,0,30.37-3s-1.17-18.44-3.06-49.71q21.87-.22,46.39-1.77l7,175.5a901.52,901.52,0,0,0,112.36,14.92l6.94-100.07-.15-13.26-.12-12.14a275.92,275.92,0,0,0,60-15.85c28.65-11.13,45.7-23.18,45.7-23.18,0-2.08-.06-4.24-.09-6.38l175.06,25c13.56,1.92,25.62-7.28,27-20.6L1945,2205.54C1946.37,2192.22,1936.44,2179.9,1922.88,2178Zm-255.6-468.69,57,44.29s4.06,270.39,4.15,272.44c0,.42,3.12.93,8,1.5-.3,4.33-.63,9.26-.87,13-.21,3.1-.33,5.41-.39,6-.15,2-30.49,22.67-28.47,38.09l-3.43-.51C1687.36,1893.2,1667.28,1709.28,1667.28,1709.28ZM1734,2088.52l-13-1.86c4.84-3.25,9.53-6.59,11.85-3.25A9.41,9.41,0,0,1,1734,2088.52Zm97.06,64.59-.63,6.25-.55,5.35-121.41-17.32c-1-12.26-1.92-24.56-3-36.89l25.56,3.64c.18,4.15,1.38,7.42,4.75,8.78,10.8,4.39,44.2,15.33,55.54-.18l40.65,5.8a1.59,1.59,0,0,1,1.35,1.65Z" transform="translate(-766.42 -621.2)" fill="#5c76cc" opacity="0.35" style="mix-blend-mode:multiply"/><path d="M1595.92,2756.82s-7.53,30.33,4.52,42.34,37.41,22.94,30.09,51-101.64-8.08-105.25-19.29-2.43-80.94-2.43-80.94Z" transform="translate(-766.42 -621.2)" fill="#15315e"/><path d="M1265.44,2755.2s9.12,28.58-4,39.4-65.67,21.63-61,50.21,123.74,1.55,128.39-9.27,10.06-80.34,10.06-80.34Z" transform="translate(-766.42 -621.2)" fill="#15315e"/><path d="M1122,1518.48l-18.24-27.67c-1.3-2,11.54-45.1-2.63-56.56s-11.21,24.09-20.82,21-24.81-46.12-38.17-42-46.65,28.06-39.36,53.46,41.1,46.78,51.56,56.91,27.63,70.08,27.63,70.08Z" transform="translate(-766.42 -621.2)" fill="#fdc8aa"/><path d="M1349.23,1689s-19.64,36.5-74.5,83.58q-9.13,7.83-19.59,16c-69.88,54.52-200.79-245.3-200.79-245.3l66.08-39.45,118.66,151.38,73.5-178.31,15.72-38.12Z" transform="translate(-766.42 -621.2)" fill="#fff"/><path d="M1349.23,1689s-19.64,36.5-74.5,83.58L1312.59,1477l15.72-38.12Z" transform="translate(-766.42 -621.2)" fill="#e9f2ff"/><path d="M1284.21,2355.32c5.46,0,131,57.29,392.85,0V1935.18l-283.47-21.82Z" transform="translate(-766.42 -621.2)" fill="#c4d7f2"/><polygon points="766.31 1348.18 766.31 1456.62 750.27 1517.45 680.73 1781.11 662.98 1848.42 582.83 2152.28 488.04 2152.28 542.56 1800.89 552.39 1737.74 604.21 1403.77 612.86 1348.18 766.31 1348.18" fill="#1f3a6f"/><polygon points="888.38 1337.93 871.13 1835.85 870.66 1849.28 835.87 2152.28 745.85 2152.28 750.26 1517.46 750.84 1433.1 751.43 1348.16 751.47 1342.33 888.38 1337.93" fill="#1f3a6f"/><path d="M1654.79,1959.13l-17.25,497.92c-45.5,14.67-91.44,19.66-91.44,19.66l6.84-418.75a91.76,91.76,0,0,1-20.22-.66,144.9,144.9,0,0,1-15.47-3c-37.6-9.33-74.8-31.81-74.8-31.81l-71.82,2.49,8.63-55.61h138.59l0-5.83Z" transform="translate(-766.42 -621.2)" fill="#15315e"/><path d="M1452.23,1370.87h154.48l48.09,601.89s-99.58,58.66-244.17,0Z" transform="translate(-766.42 -621.2)" fill="#3b82f4"/><path d="M1599.52,1372.29s-10.31,67.46-73.2,66.52-56.89-71.48-56.89-71.48l6.41-33.28,9.69-50.39h93.28c0,.46,2,9.57,4.73,21.74s6.37,27.5,9.56,40.64c0,0,.41.41.42.44C1597,1361,1599.52,1372.29,1599.52,1372.29Z" transform="translate(-766.42 -621.2)" fill="#fdc8aa"/><path d="M1583.54,1305.4c-14.31,21.22-53.14,66-107.7,28.65l9.69-50.39h93.28C1578.81,1284.12,1580.82,1293.23,1583.54,1305.4Z" transform="translate(-766.42 -621.2)" fill="#efa37d"/><path d="M1602.64,1211.66c0,62.12-32.28,112.48-72.1,112.48s-72.1-50.36-72.1-112.48,32.28-93.52,72.1-93.52S1602.64,1149.54,1602.64,1211.66Z" transform="translate(-766.42 -621.2)" fill="#fdc8aa"/><path d="M1463.35,1209.54s-28.15-17-23.26,16.77,29.78,35.86,29.78,35.86Z" transform="translate(-766.42 -621.2)" fill="#fdc8aa"/><path d="M1597.72,1206.49s28.15-17,23.27,16.77-29.78,35.86-29.78,35.86Z" transform="translate(-766.42 -621.2)" fill="#fdc8aa"/><path d="M1601.85,1224.89s5.49-7.48,9.37-4.13-1.86,22.06-4.69,24,5.44-17.55,1.71-18.84A16.54,16.54,0,0,0,1601.85,1224.89Z" transform="translate(-766.42 -621.2)" fill="#efa37d"/><path d="M1447.14,2402.3l-17.75,67.31c-62.23-.22-101.6-29.08-120.41-47.52l9.82-63.15Z" transform="translate(-766.42 -621.2)" fill="#15315e"/><path d="M1460,1224.89s-5.49-7.48-9.37-4.13,1.86,22.06,4.68,24-5.43-17.55-1.7-18.84A16.54,16.54,0,0,1,1460,1224.89Z" transform="translate(-766.42 -621.2)" fill="#efa37d"/><path d="M1474.22,1342.5s-142,66.9-147.48,101,7.5,521.08-19.78,598.83-91.27,294.35-91.27,294.35,141.72,117.6,253.59,94.41c0,0-8.2-492.43,0-711.36S1474.22,1342.5,1474.22,1342.5Z" transform="translate(-766.42 -621.2)" fill="#fff"/><path d="M1880.74,1722.89c-13.11,81.66-33,298.57-36.93,298.57-4.77,0-74.44-4.36-74.44-6.41s8.6-276,8.6-276l-55-44.89s22,357.25,23.8,595.93c.3,43.17,0,82.48-1.29,115.09,0,0-17.62,12.22-46.8,23.49-32.1,12.42-78.2,23.73-130.19,16.41,0,0,1.74-22.45,4.3-58.66,1.71-24.56,3.82-55.41,6-89.91,8.41-133,18.09-319.74,12.36-404.66-9.37-139.38,11.07-515.47,1.9-545.81,0,0,110.8,41.53,160.6,126.79,36.11,61.88,89.31,149.41,115.77,192.79A84.07,84.07,0,0,1,1880.74,1722.89Z" transform="translate(-766.42 -621.2)" fill="#fff"/><path d="M1462.54,1190.4a2.73,2.73,0,0,1-4.14-1.22c-4-9.12-21.22-39.52,8.83-68,36.78-34.84,134.17-28.54,149.82-15.76s-9.46,42.82-6.91,48.26-1.77,36.82-8.83,43.85c0,0-54,3.83-77.69-16.94C1503.54,1163,1471.73,1183.71,1462.54,1190.4Z" transform="translate(-766.42 -621.2)" fill="#1f3a6f"/><path d="M1745.52,2405.18s-17.62,12.22-46.8,23.49l-125.89-42.25c1.71-24.56,3.82-55.41,6-89.91,49.35-2.31,123.22-4.91,168-6.42C1747.11,2333.26,1746.77,2372.57,1745.52,2405.18Z" transform="translate(-766.42 -621.2)" fill="#003889" opacity="0.18" style="mix-blend-mode:multiply"/><path d="M1868.51,2150.17a29.79,29.79,0,0,0-3.41,0l-1.16,8,26,3.78.48-3.27A40.21,40.21,0,0,0,1868.51,2150.17Z" transform="translate(-766.42 -621.2)" fill="#1f3a6f"/><path d="M1891.45,2151.69l4-27.28a27.82,27.82,0,0,0-23.51-31.5l-159.74-23.22a27.83,27.83,0,0,0-31.5,23.5l-5.46,37.57,26,3.78,5.46-37.56a1.5,1.5,0,0,1,1.7-1.27l159.74,23.22a1.51,1.51,0,0,1,1.27,1.7l-3.37,23.18c1,0,1.93,0,2.82.05A45.46,45.46,0,0,1,1891.45,2151.69Z" transform="translate(-766.42 -621.2)" fill="#1f3a6f"/><path d="M1868.85,2143.86c-.89,0-1.83-.06-2.82-.05l-.93,6.36a29.79,29.79,0,0,1,3.41,0,40.21,40.21,0,0,1,21.92,8.54l1-7A45.46,45.46,0,0,0,1868.85,2143.86Z" transform="translate(-766.42 -621.2)" fill="#1f3a6f"/><path d="M1977.53,2196.94l-30,206.22a24.66,24.66,0,0,1-27.94,20.85l-347.43-50.51a24.64,24.64,0,0,1-20.85-27.93l30-206.22a24.65,24.65,0,0,1,27.94-20.85l347.43,50.5A24.66,24.66,0,0,1,1977.53,2196.94Z" transform="translate(-766.42 -621.2)" fill="#3b82f4"/><circle cx="1764.43" cy="2271.25" r="90.06" transform="translate(-1855.65 1291.68) rotate(-45)" fill="#ecf3fe"/><polygon points="1049.93 1637.29 1020.79 1633.06 1025.03 1603.92 985.25 1598.14 981.01 1627.27 951.87 1623.04 946.09 1662.82 975.23 1667.06 970.99 1696.19 1010.78 1701.98 1015.01 1672.84 1044.15 1677.08 1049.93 1637.29" fill="#3b82f4"/><path d="M1832.66,2041.57c1.39,12.75,6.77,46.24-2.6,67.56s-46.49,8.88-57.86,4.11,3.62-32.49-1.15-40-22.79,18.23-25.94,2.48,29.85-37.75,30.1-39.82c.08-.59.32-3,.67-6.08.43-3.82,1-8.84,1.47-13.21,14.18,1.65,43.65,3.64,58.2,4.48-.58,2.29-1.11,4.58-1.58,6.79C1832.89,2033.22,1832.29,2038.13,1832.66,2041.57Z" transform="translate(-766.42 -621.2)" fill="#fdc8aa"/><path d="M1835.55,2021.07c-.58,2.29-1.11,4.58-1.58,6.79l-58.09,1.94c.43-3.82,1-8.84,1.47-13.21C1791.53,2018.24,1821,2020.23,1835.55,2021.07Z" transform="translate(-766.42 -621.2)" fill="#efa37d"/><polygon points="675.81 1035.98 583.47 1035.21 593.12 980.94 682.76 996.87 675.81 1035.98" fill="#c4d7f2"/><path d="M1708.55,1471.08l-44.92-56.41.47-.23-11.88-14.88a29.41,29.41,0,0,0-23.78-9.64h0l-.31-1.78a1.05,1.05,0,0,0-.94-.87c-2.45-15.66-10-29.7-21.13-39.56a69.79,69.79,0,0,0-14.87-9.55l1.91,7.88c13.3,7.3,24.72,21.94,27.87,42.3l.12,0a1.09,1.09,0,0,0-.54,1.11l.31,1.79a30.25,30.25,0,0,0-11.85,6.53,29,29,0,0,0-7.5,10.6l-6.16,17.82.47.06-23.63,68c-5.35,13.09.55,27.63,13.77,33.78,5.11,2.65,11.32,3.74,18.43,3.9l0,1.51,3-.05a5.85,5.85,0,1,0-.13-8l-3,0,0,1.52h0c-6.33-.16-11.78-1.15-16.09-3.39l-.09,0c-10.75-5-15.62-16.72-11.24-27.46l24-69,.52.06,5.74-16.51a22.48,22.48,0,0,1,6.21-8.59,24.56,24.56,0,0,1,8.49-4.71l.07.44c.2-.07.39-.1.59-.17a26,26,0,0,1,3.14-.74,26.46,26.46,0,0,1,3.21-.34,4.7,4.7,0,0,1,.65,0l-.08-.48h0a23.4,23.4,0,0,1,18.15,7.57l11,13.78.45-.25,45.63,57.31c7,7.83,7,19.14.34,27.38h0a24.22,24.22,0,0,1-2,2.2c-3.27,3.5-8,6.2-13.76,8.39h0l-.46-1.35-2.85,1a5.85,5.85,0,1,0,2.55,7.63l2.85-1-.51-1.51h0l.46-.17c6.31-2.45,11.54-5.48,15.3-9.42a28.35,28.35,0,0,0,2.23-2.45C1717.12,1494.86,1717.14,1480.72,1708.55,1471.08Z" transform="translate(-766.42 -621.2)" fill="#1f3a6f"/><path d="M1440.21,1368.58c-16.17,28.53-25.8,67.34-28.63,115.35-1.68,28.44-.95,59.57,2.17,92.62l-.54,0,.41,5a13.6,13.6,0,1,0,7.8-.57L1421,1576l-1,.08c-5-53.86-7.41-146,25.65-204.35,11.43-20.18,21.12-26.86,28.39-29.15l1.38-6.57C1467,1338.31,1453.29,1345.49,1440.21,1368.58Z" transform="translate(-766.42 -621.2)" fill="#1f3a6f"/><circle cx="1134.44" cy="969.6" r="120.78" transform="translate(-1119.76 464.97) rotate(-45)" fill="#ccd2f4"/><circle cx="1024.2" cy="2563.35" r="60.86" transform="translate(-2442.58 2514.67) rotate(-80.19)" fill="#33da82"/></g></g></svg>