<svg id="_27" data-name="27" xmlns="http://www.w3.org/2000/svg" viewBox="0 0 202.96 201.71"><path d="M343,293a101.5,101.5,0,1,0,158.7,87.16A95.79,95.79,0,1,1,343,293Z" transform="translate(-298.74 -276.58)" fill="#71726f" fill-rule="evenodd"/><path d="M454.42,433a85.65,85.65,0,1,0-133.91-73.55A80.83,80.83,0,1,1,454.42,433Z" transform="translate(-298.74 -276.58)" fill="#6ec9f1" fill-rule="evenodd"/><path d="M423.41,320.48h0a11.9,11.9,0,0,1,6.88,6.38,12.86,12.86,0,0,1,.5,8.76l3.08,1.12-2.09,5.79,34.16,12.37-43.07,119-97.26-35.22,43.08-118.94,34.16,12.37,2.1-5.8,3.07,1.11a11.11,11.11,0,0,1,6-6.4,11.94,11.94,0,0,1,9.39-.49Z" transform="translate(-298.74 -276.58)" fill="#71726f" fill-rule="evenodd"/><path d="M409.11,327.77h0l14.2,5.14a13.29,13.29,0,0,0,.31-7.45,5.94,5.94,0,0,0-10-3.61,13.21,13.21,0,0,0-4.55,5.91Z" transform="translate(-298.74 -276.58)" fill="#fefefe" fill-rule="evenodd"/><polygon points="120.22 186.03 37.07 155.92 73.99 53.97 101.11 63.79 130.03 74.26 157.14 84.08 120.22 186.03" fill="#fefefe" fill-rule="evenodd"/><polygon points="51.28 145.48 51.28 145.48 115.98 168.91 113.56 175.59 48.86 152.16 51.28 145.48" fill="#6ec9f1" fill-rule="evenodd"/><polygon points="55.81 132.96 55.81 132.96 120.52 156.39 118.09 163.08 53.39 139.65 55.81 132.96" fill="#6ec9f1" fill-rule="evenodd"/><polygon points="60.07 121.19 60.07 121.19 124.78 144.62 122.36 151.3 57.66 127.87 60.07 121.19" fill="#6ec9f1" fill-rule="evenodd"/><polygon points="97.19 113.64 97.19 113.64 102.03 100.26 88.48 95.35 91.89 85.94 105.44 90.85 110.28 77.47 119.32 80.74 114.48 94.12 128.04 99.03 124.63 108.44 111.07 103.53 106.23 116.91 97.19 113.64" fill="#6ec9f1" fill-rule="evenodd"/></svg>