<svg xmlns="http://www.w3.org/2000/svg" viewBox="0 0 4402.95 3381.99"><g id="Background"><g opacity="0.2"><path d="M1284.18,1141.94c-55.3-26-146.76,16.27-175.92,78.15-55.67,118.12,124.37,289.19,189.85,270.83C1371.28,1470.41,1385.72,1189.69,1284.18,1141.94Z" transform="translate(-298.53 -295)" fill="none" stroke="#0f31ac" stroke-linecap="round" stroke-miterlimit="10" stroke-width="20" stroke-dasharray="50 50 50 50 50 50"/><path d="M1007.56,1409.48c-19.73-11.41-228.8-132.35-347.12-36.64-83.07,67.21-83.87,210.86-21.44,291.59,123.65,159.91,507.07,88.22,546.85-26.2C1212.64,1561.18,1086.87,1455.36,1007.56,1409.48Z" transform="translate(-298.53 -295)" fill="none" stroke="#0f31ac" stroke-linecap="round" stroke-miterlimit="10" stroke-width="20" stroke-dasharray="50 50 50 50 50 50"/><path d="M1276.58,3384c508.89-126.31,1087.12-254.9,1985-233,502.15,12.25,615.94-143.58,996.51-337.33C4597.3,2641,4763.9,2297.61,4661.58,2103c-103.3-196.47-417.94-118.25-675.62-410.71-117.35-133.2-96.7-226.56-164.45-374.27C3607,850.31,2802.83,484.74,2406.3,678.21c-523.87,255.59-76,1360-661.6,1661.64C1374.29,2530.69,1094.32,2164.34,728.58,2444c-181.22,138.57-402.86,332.95-420,544C308.58,2988,284.58,3504,1276.58,3384Z" transform="translate(-298.53 -295)" fill="none" stroke="#0f31ac" stroke-linecap="round" stroke-miterlimit="10" stroke-width="20" stroke-dasharray="50 50 50 50 50 50"/><path d="M4590.48,3640.77c0,20-935.94,36.22-2090.48,36.22-651.43,0-1233.27-5.16-1616.66-13.26-88.31-1.86-166.07-3.88-231.74-6-43.25-1.41-81.25-2.88-113.56-4.41-83.12-3.89-128.52-8.11-128.52-12.52,0-5.61,73.69-10.93,205.2-15.66,53.85-2,117.4-3.8,189.56-5.52,122.6-2.94,270.06-5.55,437-7.73,235.36-3.09,509.51-5.33,807.5-6.47a3.23,3.23,0,0,0,.44,0c145.16-.55,296-.84,450.74-.84,155.05,0,306.15.29,451.58.85,291.91,1.11,560.93,3.28,793,6.26,110.12,1.42,211.93,3,303.92,4.78C4385.27,3622.87,4590.48,3631.41,4590.48,3640.77Z" transform="translate(-298.53 -295)" fill="#040c2b"/><path d="M4088.14,2809.3s-92.18,122.22-184.38,289.91c-81.07,147.49-143.2,345-159.16,512.45-232.09-3-501.11-5.15-793-6.26-142.55-1.44-294.24-2.22-451.58-2.22-157,0-308.43.77-450.74,2.21a3.23,3.23,0,0,1-.44,0c-298,1.14-572.14,3.38-807.5,6.47C896.8,3187,229.38,2461.62,855.52,2161.47c0,0,46.33-14.11,115.79-44.42,201.9-88.12,599.4-313.07,624-726.27a706.22,706.22,0,0,0-2.67-114.68s-4-21-8.08-57a1426.15,1426.15,0,0,1-9-160.28c0-295.56,93.57-785.48,718.25-763.12,378.29,13.56,726.68,206.06,937.31,514.18,206.6,302.21,536.94,674,806,461.76,62.1-49,144.21-67.18,220.87-45.63C4451.57,1280.44,4671.55,1562,4088.14,2809.3Z" transform="translate(-298.53 -295)" fill="#acbcf8"/></g></g><g id="Design"><path d="M3581.7,3394.74s-4.95,132.62-48.84,169.18l35.23,40.29,24.73-13.64,17.32-27.27,44.51-79.32,17.31-29.75-23.49-70.65Z" transform="translate(-298.53 -295)" fill="#db965f"/><path d="M3677.52,3487.08s20.07-25.17-15.31-62.16c0,0-26.73,68.35-51.46,114.21,0,0-17.31,31-51.93,35.95,0,0-26,0-3.71-44.62,0,0-65.53,70.65-60.59,94.2,0,0,1.86,5.57,21,5,0,0,41.74.7,68.34-11.5a40.64,40.64,0,0,0,21.78-25.62c6.21-21.08,24.26-68.85,61.35-93.64l2.41,41a4.63,4.63,0,0,0,4.93,4.56h0a4.63,4.63,0,0,0,4.31-4.73Z" transform="translate(-298.53 -295)" fill="#040c2b"/><polygon points="3428.46 3141.26 3376.52 3308.59 3443.29 3317.26 3461.84 3280.08 3486.57 3201.99 3484.1 3123.91 3428.46 3141.26" fill="#db965f"/><path d="M3785.1,3523s23.49-18.59,7.41-66.93l-8.93-6.87s-23.21,124.62-39.29,133.3c0,0-26,18.59-53.17,0,0,0-8.65-3.19,0-30.73,0,0-37.09,60.47-33.38,90.22,0,0,.62,9.3,38.33,0,0,0,59.35-14.87,61.82-34.71,0,0,9.9-49.57,17.31-59.49v27.27a5,5,0,0,0,5,5h0a5,5,0,0,0,4.95-5Z" transform="translate(-298.53 -295)" fill="#040c2b"/><path d="M3766.55,2423.62l-5.46,22.54-.59,2.41-2.7,11.14-61.43,253.36-5.25,21.66-15.24,45.83-41.63,125.21s-18.56,39.67-7.43,162.38l6.15,61.58,9.93,99.54,30.91,202s-1.5.81-4.23,2.14c-1.11.53-2.42,1.16-3.92,1.85-2.56,1.18-5.67,2.54-9.22,4-19.25,7.89-51.47,18.24-80.71,14.29-16.07-2.17-31.24-8.67-42.88-22.27l-12.35-309.86s-11.13-95.44-3.71-166.09l28.43-313.58s.25-13.88,1.41-34.72c2.64-47.67,10-131.74,29.79-169.46.6-1.17,1.23-2.3,1.87-3.38a51.69,51.69,0,0,1,5.6-7.83,25.58,25.58,0,0,1,8.31-6.48l21.11.45,8.79.19,51.84,1.11Z" transform="translate(-298.53 -295)" fill="#040c2b"/><path d="M3761.09,2446.16l-.59,2.41-2.7,11.14-61.43,253.36-5.25,21.66-15.24,45.83-41.63,125.21s-18.56,39.67-7.43,162.38l6.15,61.58-11.59-69.29a642.64,642.64,0,0,1,2.33-224.73l104.45-397.25Z" transform="translate(-298.53 -295)" opacity="0.1"/><path d="M3799.93,2407.51s65.54,78.08,58.12,228.06c0,0-2.47,39.66-9.89,88,0,0-32.15,143.78-12.37,333.41,0,0,11.13,97.92,7.42,264l2.47,152.45s-90.26,45.86-137.25-18.59L3724.51,3259V3049.55l-9.89-110.31L3691.12,2648l-17.31-228.06Z" transform="translate(-298.53 -295)" fill="#040c2b"/><path d="M3780.24,1662.76s-6.17-19.73-50.37-20.66c0,0-51.19-4.58-82.12,47.43a68.25,68.25,0,0,1-6.28,8.88c-4.67,5.57-12.58,16.69-13.43,28.79a129.61,129.61,0,0,1-1.58,13.93c-1.37,7.69-3.51,17.51-5.76,20.1a14.16,14.16,0,0,0-2,2.69,81.53,81.53,0,0,0-8.31,45.72,114.38,114.38,0,0,1,3.31,20.9,42.1,42.1,0,0,1-2.93,17.67c-2.91,7.33-8,23.25-5.08,38.45a111.3,111.3,0,0,1,2.27,24.23,56.19,56.19,0,0,1-1.15,11.3s-6.63,34,41.94,39c0,0,51.75,3.32,67.79-20.32l109.65-52.75-26.29-211Z" transform="translate(-298.53 -295)"/><path d="M3696,1867.2s11.69,111.86,0,136.84l40.41,48.33,75-65.16-33.11-186.8Z" transform="translate(-298.53 -295)" fill="#c9885b"/><path d="M3632.64,2112l-.18.77q-1.59,1.63-3.3,3.27c-3.75,3.59-7.88,7.19-12.33,10.78-16,12.9-36.09,25.66-57.19,37.53-6.62,3.72-13.33,7.35-20,10.88q-6.95,3.64-13.89,7.13l-.39.2c-13.19,6.62-26.14,12.75-38.11,18.22l-1.39.63c-26.78,12.16-48.49,20.88-56.81,24.16l-3.65,1.42-.1-.44-20.37-92.49,18.16-14.37,6-4.72L3563,2009a70.23,70.23,0,0,1,9-6.1,64.3,64.3,0,0,1,10.39-4.76h0a58.31,58.31,0,0,1,12.14-2.9c17.85-2.21,29,4.78,35.63,16.3.34.57.66,1.15,1,1.75a55.32,55.32,0,0,1,3.58,8.69C3645.18,2054.41,3634.2,2105.2,3632.64,2112Z" transform="translate(-298.53 -295)" fill="#fff"/><path d="M3813.36,1957.88l-.77,33.18-.09,3.64-4,172.79-20.33,225.86-1.36,15-3.63,40.4-28.36,1.87-86.92,5.75-16.17,1.06-41.38-30.76-7.65-5.69-17-12.68-1.11-.82,53.72-232.1,7.62-32.9L3678,2012.19l1-2.5,1.34-3.28,22-54c.79,20.15,14.25,36.77,19.42,42.45.52.55.94,1,1.28,1.34.46.49.73.74.73.74,2.59-1.24,5.2-2.61,7.8-4.07l1.13-.64c38.1-21.83,75.78-64.8,75.78-64.8Z" transform="translate(-298.53 -295)" fill="#acbcf8"/><polygon points="3511.91 2092.96 3511.91 2162.46 3453.49 2167.36 3382.41 2173.32 3370.03 2170.22 3305.75 2154.09 3266.03 2144.12 3265.56 2144 3267.98 2140.57 3273.76 2132.34 3287.12 2113.33 3293.8 2103.82 3317.72 2108.88 3386.3 2123.37 3489.63 2098.35 3511.91 2092.96" fill="#040c2b"/><polygon points="3395.38 2177.73 3361.37 2175.32 3364.57 2118.96 3398.58 2121.37 3395.38 2177.73" fill="#040c2b"/><path d="M3812.59,1991.06l-.09,3.64-54.64,52.24-26.28-54,1.13-.64,28.07,43.81Z" transform="translate(-298.53 -295)" opacity="0.1"/><path d="M3723.05,1996.24l-34.33,59.39-9.69-45.94,1.34-3.28,9.33,36.18,32.07-47.69C3722.29,1995.45,3722.71,1995.91,3723.05,1996.24Z" transform="translate(-298.53 -295)" opacity="0.1"/><path d="M3859.12,2242.43c-13.26,59.64-13.87,119.07-10.6,166.18a693,693,0,0,0,8.82,72.39c2.63,14.74,4.7,23.16,4.7,23.16,14.61,58.65,19.48,103.18,19.48,103.18-7.3,2.31-15,4.56-22.9,6.75-47.83,13.21-103.43,23.82-127.1,28.12-6.35,1.15-12.29-3.85-13-11q-.34-3.37-.66-6.78c-2.55-26.42-4.53-54.06-6.09-81.49-2-35-3.29-69.67-4.13-101.1-.17-6.65-.33-13.17-.48-19.5,0-1.92-.07-3.83-.11-5.72-1.25-61.08-.8-104.7-.8-104.7l.9-5.77.33-2,19.22-122.52c15.58-116.21,83.8-241.53,83.8-241.53l26.76,37.55,1.26,1.76.15.21c54.53,10.86,76.93,25,76.93,25l-4.59,19.3-43.15,181.73Z" transform="translate(-298.53 -295)" fill="#fff"/><path d="M3867.86,2205.61c-13.8-69.78-7.92-191.61,21.08-186.61,0,0,8.1,40.66.35,79.44C3879.3,2148.42,3867.86,2205.61,3867.86,2205.61Z" transform="translate(-298.53 -295)" opacity="0.1"/><polygon points="3545.99 1710.67 3408.63 2011.16 3408.95 2009.13 3539.17 1711.76 3528.46 1699.81 3538.74 1682.63 3539.99 1684.39 3533.33 1699.81 3545.99 1710.67" opacity="0.1"/><path d="M3623.68,2040.52l-7.74,97.48c-18.55,9.73-113.5,55.87-130.13,63.44l87.83-182.83c7.08-4,20.31-6,28.14-6.94C3620.53,2009.36,3617.13,2028,3623.68,2040.52Z" transform="translate(-298.53 -295)" opacity="0.1"/><path d="M3702.83,1953c-.15.81-5.46,27.19-13.13,65.68,0,0-12.81,121.16-40.3,275.74-.17,1-.35,2-.52,3s-.38,2.08-.57,3.12l-1.94,83.63s-9.74,184.62-37,242.18c0,0-96.4-27.15-94.45-74.93,0,0,50.14-196,53.06-237.3,0,0-1-57.56-6.81-128.16,0,0-17.53-190,31.16-191.14l68.75-7.76,2.05-.22,1-.11L3679,1985Z" transform="translate(-298.53 -295)" fill="#fff"/><path d="M3639.06,2224l10.34,70.48c-.17,1-.35,2-.52,3-3.87-18.46-9-43.3-9.14-42.51-8.17-88.43-18.73-213.09-6.52-260.09l19.48,7.6,8.38-15.36,2.05-.22,1-.11-7.54,22.21-17.53-7.6S3623.48,2027.39,3639.06,2224Z" transform="translate(-298.53 -295)" opacity="0.1"/><path d="M3643.93,2317.36a.28.28,0,0,0,0-.09" transform="translate(-298.53 -295)" fill="none" stroke="#131a3f" stroke-miterlimit="10" stroke-width="0.66"/><path d="M3988,2262.92l21.6,96.26L3927.94,2386l-16.89-69.65-21.3-96.46-16.51-71.41C3844,2006.21,3902,2002.57,3902,2002.57c27.15-14.37,44.78,82.38,44.78,82.38Z" transform="translate(-298.53 -295)" fill="#fff"/><path d="M3769.23,1887.2s-71.28,74.66-99.68,30.28c0,0-73.25-163,6-230.8,0,0,67.6-62.1,98.93,25.63C3774.44,1712.31,3846.57,1797.09,3769.23,1887.2Z" transform="translate(-298.53 -295)" fill="#db965f"/><path d="M3720.23,1658.59c-94.39-8.38-85.55,170.6-85.55,170.6,9.9-77.64,48.59-127.41,68.24-131.45a26.75,26.75,0,0,1,21.28,4.76c21.5,15.66,69.56,66.7,45.86,200.22,0,0-20.26,83.34,69.27,48,0,0,48.92-19.14,34.74-52.32,0,0-11.8-21.78-2.64-45.49,0,0,5.49-18.7-7.39-39a45.32,45.32,0,0,1-7-24.35c0-13.43-1.35-32.88-8.62-44.17a78.38,78.38,0,0,1-8.49-17.16,187.79,187.79,0,0,1-5.62-19.32,66.76,66.76,0,0,0-10-23.21c-10-14.57-28.38-33.32-55.16-28.19Z" transform="translate(-298.53 -295)"/><path d="M3684.34,1686.92s-5.84,49.95,105.16,133.58-22.39-147.7-22.39-147.7Z" transform="translate(-298.53 -295)"/><path d="M4195.89,2083c-32.34-.11-62.7,48.11-62.7,48.11l8.86-22a15.3,15.3,0,0,0-.22-11.81,18.65,18.65,0,0,0-8.73-9.17c-32.88,59-23.49,88.08-23.49,88.08-4.81,15.8-24.49,40.79-36.16,54.71-5.21,6.21-8.83,10.21-8.83,10.21l52.84,27.17,5.51-8.43,38.06-58.32,39.64-27.09C4253.34,2104.56,4195.89,2083,4195.89,2083Z" transform="translate(-298.53 -295)" fill="#db965f"/><path d="M4126.7,2260.91c-1.18-.27-2.43-.64-3.73-1.07-16.57-5.55-41.14-22.84-49.52-29-1.86-1.36-2.93-2.16-2.93-2.16l-23.91,25.14-68.18,71.69L3925.94,2378l10,36c21,59,65.2,33.6,81,15l90.89-137.37Z" transform="translate(-298.53 -295)" fill="#fff"/><path d="M4126.7,2260.91c-1.18-.27-2.43-.64-3.73-1.07-16.57-5.55-41.14-22.84-49.52-29-1.86-1.36-2.93-2.16-2.93-2.16l-23.91,25.14c12.4,10.57,38.27,30.93,61.22,37.76Z" transform="translate(-298.53 -295)" fill="#acbcf8"/><path d="M3375.05,2086.32l-43.81,54.12-13.54-14-28.57-29.59-64.58-66.89s-96.42-33.83-92.62-107.13a47.47,47.47,0,0,1,1.14-10.81c3.59-16,18.14-40.28,76.75-.47l.49.47,9.69,9.24,2.65,2.53-4-11.77-2.68-7.83c-2.75-8.06,1-17.34,8.32-20.81,0,0,4,5.59,9.46,14.55.5.82,1,1.66,1.53,2.53l.29.48,1.69,2.87q2.25,3.86,4.63,8.21c.54,1,1.09,2,1.64,3.06,9.33,17.54,18.92,39.75,20.83,59.52.09,1,.17,1.9.23,2.85,0,0,7,25.06,34.09,42.85l17.38,15,32.67,28.24Z" transform="translate(-298.53 -295)" fill="#db965f"/><path d="M3429,2223.68a20.45,20.45,0,0,1-3.75,2.9c-7.48,4.55-18.18,4.38-33.31-3.58l-77.71-92.47-29.47-27.4s1.73-2.34,4.37-6.3c8.23-12.28,25.3-40.1,26.89-61.53a40.41,40.41,0,0,0,.08-4.78s14.44,9.85,34.17,25c21.91,16.86,50.33,40.3,72.77,64.16q3.06,3.26,6,6.51c3.31,3.72,6.44,7.43,9.35,11.11C3438.35,2137.34,3450.09,2203.33,3429,2223.68Z" transform="translate(-298.53 -295)" fill="#fff"/><path d="M3350.27,2055.56c-.44,2.58-1,5.24-1.58,8a151.46,151.46,0,0,1-31,62.88q-1.68,2.05-3.47,4.11l-29.47-27.4s1.73-2.34,4.37-6.3c8.23-12.28,25.3-40.1,26.89-61.53a40.41,40.41,0,0,0,.08-4.78S3330.54,2040.37,3350.27,2055.56Z" transform="translate(-298.53 -295)" fill="#acbcf8"/><path d="M3370.67,1880V1880S3370.7,1880,3370.67,1880Z" transform="translate(-298.53 -295)" fill="#9aaaf7" stroke="#131a3f" stroke-miterlimit="10" stroke-width="0.66"/><path d="M3264.32,1974.58l-19.67,38.73-14.71-26.39-.32-29.59-7-33.56-4-11.77-2.68-7.83c-2.75-8.06,1-17.34,8.32-20.81,0,0,4,5.59,9.46,14.55.5.82,1,1.66,1.53,2.53l.29.48,1.69,2.87q2.25,3.86,4.63,8.21c.54,1,1.09,2,1.64,3.06C3252.82,1932.6,3262.41,1954.81,3264.32,1974.58Z" transform="translate(-298.53 -295)" fill="#db965f"/><path d="M3997.51,2305.49s-28.57,23.51-30.57,38.51C3966.94,2344,3972.08,2309,3997.51,2305.49Z" transform="translate(-298.53 -295)" opacity="0.1"/><path d="M1755.05,2218.47l-49.17,50.68c-.56-.36-1.18-.79-1.85-1.3-9.73-7.16-31-27.72-35.68-33.23L1657.24,2221l-11-13.46-.06-.07L1632.63,2191l-.72-.89-3.91-4.78-45.6-55.74,34-15.55,11.63-5.32,51.68-23.66,22.12,39.17,16.59,29.38Z" transform="translate(-298.53 -295)" fill="#db965f"/><path d="M1909.09,1912c-3.08,33.18-25.53,77.12-49.95,97.24l-67.93,175.28-19.86,48.27c-10.77,25.46-27.43,45.53-47.7,44.45a29.23,29.23,0,0,1-19.62-9.39c-.61-.63-1.18-1.29-1.73-2l-20.81-26.1,36.9-86.2,16.22-37.88,54.7-122.65s-24.37-38.85-24.18-80.86a98.29,98.29,0,0,1,.95-13.44c7.23-3.47,15.59,1.2,16.09,9l1.28,4.28,9.17,30.62s4.58-12.7,15.61-30.62c3.78-6.15,8.33-12.92,13.71-20,0,0,47-52,80-13C1908.38,1886.6,1910.36,1898.4,1909.09,1912Z" transform="translate(-298.53 -295)" fill="#db965f"/><path d="M1716.25,2110.33l-7.66,7.35-2.13,2.05-4.66,4.46-39.88,38.2-19.73,19.24-9.13,8.91-.43.42-4.63,4.52-3.19,3.11-56-60.17-25.06-26.92-19.52-21L1543,1988.43l7.53-40.88s2.1-2.44,7.72-2.38a30.56,30.56,0,0,1,10.68,2.39h0c13.1,5.12,34.49,20,68.06,58.33C1658.25,2030.15,1684.32,2063.79,1716.25,2110.33Z" transform="translate(-298.53 -295)" fill="#fff"/><path d="M1657.84,2222.61l-11.61-15-.06-.07-13.11-17-.74-1-.41.49-3.91,4.69-3.19,3.83-56.08-58.33-94.06-97.82s42.11-34.29,68.35-54c10.6-8,18.61-13.55,20.23-13.55l10,26.1,43.16,113,11.63,30.46,14.19,37.17,15,39.41Z" transform="translate(-298.53 -295)" opacity="0.15"/><path d="M1617.69,3373s8.52,131.48,29.23,158l-108.43,42.24-5.21-217.3Z" transform="translate(-298.53 -295)" fill="#db965f"/><path d="M1658.13,3613.13s96.51,6.47,163.61-25.47a21.34,21.34,0,0,0,10.24-27.39c-5.25-12.78-19.9-26.61-58.81-26,0,0-109.85-26.61-144.76-57.5,0,0-52.85,41-92.05,24,0,0-22.87,24.61-20,64.24,2.08,28.83,26.55,50.69,54.47,49C1600.13,3612.37,1639.14,3610.78,1658.13,3613.13Z" transform="translate(-298.53 -295)" fill="#040c2b"/><path d="M1295.36,3375.88s-15.53,130.84,0,160.68l-114.3,21.8,34.4-214.62Z" transform="translate(-298.53 -295)" fill="#db965f"/><path d="M1293.44,3634s93.73,23.91,165.52,4.71a21.33,21.33,0,0,0,15-25.07c-2.84-13.53-14.72-29.79-53.1-36.23,0,0-103.18-46.15-131.89-82.88,0,0-62.52,23.73-98-.1,0,0-23.88,27-28.28,66.53-3.2,28.73,16.89,54.67,44.65,58.12C1236.56,3622.67,1275.2,3628.2,1293.44,3634Z" transform="translate(-298.53 -295)" fill="#040c2b"/><path d="M1318.25,2424.21l138.09,474.29,59.55,501.65,35.17-.62,94.77-2.52-3.32-499.27a799.25,799.25,0,0,0-15.62-151.8l-84.81-422.21-231.62,77.86Z" transform="translate(-298.53 -295)" fill="#040c2b"/><polygon points="1157.82 2603.5 1217.37 3105.14 1252.54 3104.53 1241.82 2596.4 1166.78 2102.01 1019.72 2129.21 1157.82 2603.5" opacity="0.15"/><path d="M1221.77,2360.73s-35.51,83.79-18.87,289.23l14,259.44L1189,3419.49l122.72,7.44L1395.27,2994a1381.06,1381.06,0,0,0,24.12-238.19l6-424.32Z" transform="translate(-298.53 -295)" fill="#040c2b"/><path d="M1459.41,1901l-19.47,139-149.46-136.09c12.43-17.19,19.06-43.62,22.55-68.94a443.07,443.07,0,0,0,3.49-71.67l131.18,42.64c-7.76,27.78-9.5,47.48-8.23,61.44C1442.25,1897.92,1459.41,1901,1459.41,1901Z" transform="translate(-298.53 -295)" fill="#c9885b"/><path d="M1439.47,1867.38c-64.34,30.91-103.18,5-126.44-32.41a443.07,443.07,0,0,0,3.49-71.67l131.18,42.64C1439.94,1833.72,1438.2,1853.42,1439.47,1867.38Z" transform="translate(-298.53 -295)" opacity="0.1"/><path d="M1385.2,1620.41s-94.39,16.27-100.25,109.36c0,0-3.25,40.36,24.74,46.87,0,0,3.58,77.15,81.7,88.21,0,0,70.63,1,81.7-75.19,0,0,23.43-17.57,18.22-59.24C1491.31,1730.42,1482.85,1602.18,1385.2,1620.41Z" transform="translate(-298.53 -295)" fill="#db965f"/><path d="M1349.46,1651.71c-16.76,10.55-33.27,28.59-36.52,59.18V1748H1309s-1-51.6-22-34.91c0,0-13.63-65.72,38.8-102.54,27.24-19.13,62.18-23.33,93.7-12.65,24.57,8.33,52.08,25.41,58.46,60.38,0,0,28.91,22.72,13.93,72.14,0,0-11.71,6.51-15,28.65l2-35.16s0-10.42-3.14-16.77a106.28,106.28,0,0,1-7.35-20.66c-3.71-14.39-14-34.69-42.73-44A90.58,90.58,0,0,0,1349.46,1651.71Z" transform="translate(-298.53 -295)"/><path d="M1592.72,2426.54a27.35,27.35,0,0,1-20,21.07c-14.24,3.42-44.13,10.7-68.34,15.13s-52.42,8.79-82.62,11.89h-.07c-74.71,7.67-161.64,7.66-230.56-17.76a26,26,0,0,1-9.67-6.28,28.73,28.73,0,0,1-8-19.53l-.08-4.52-.17-8.23-.63-33.2-1.2-62.13-.79-41.42-1.2-62.13-.8-41.42-.72-37.71c0-.66,0-1.34,0-2l1.13-22.4.23-4.77,1.84-36.65,5.18-103.55.52-10.36L1300.94,1885s-2.31,29.82,74,68c7.34,3.67,20.63,5.65,28.55,5.73a50.1,50.1,0,0,0,5.62-.23,51.57,51.57,0,0,0,22.6-7.65c15-9.38,27-26.77,15-58.87l31.3,14.19,3.45,1.56,86,39a12.52,12.52,0,0,1,7.2,11.93l-.4,12.26-1.33,41.42-2,62.13-1.34,41.42-2,62.14-1.34,41.42-.22,6.89a29.51,29.51,0,0,0,.11,3.64l7.47,51.6,6,41.42,9,62.13,4.71,32.52A29.36,29.36,0,0,1,1592.72,2426.54Z" transform="translate(-298.53 -295)" fill="#fff"/><path d="M1228.44,2192.58s-54.93,246-55.06,238.49l-.25-12.76-5.35-278c0-.66,0-1.34,0-2l-6.93-101.83,28.52-61.56C1258.47,1958.36,1272,2072.47,1228.44,2192.58Z" transform="translate(-298.53 -295)" opacity="0.15"/><path d="M1393.83,1971.25c7.93-1.89,9.24-11.51,9.32-12.23C1401.78,1964.68,1397.79,1968.63,1393.83,1971.25Z" transform="translate(-298.53 -295)" opacity="0.15"/><path d="M1383.18,1970.38s18.68,1,22.35-12.56h.44c1.85,0,3.7,0,5.54-.17.67,1.13,12.35,20.07,22.58,10.85l3.79,13.9-4.17,7.5a26.55,26.55,0,0,1-7.36,8.41L1457,2377a14.6,14.6,0,0,1-3.59,10.75L1430.9,2414a7.43,7.43,0,0,1-11.23-.24L1401,2396.92a17.67,17.67,0,0,1-6-13.1V2001.53a27.12,27.12,0,0,1-12.78-11.62l-3.25-5.85Z" transform="translate(-298.53 -295)" fill="#040c2b"/><path d="M1411.49,1957.61l0,.05c.67,1.25,12.35,22.26,22.58,12l3.79,15.42,2.87,11.65s42.81-23.38,45.81-69.93l-1.72-17.5c2,21.64-3,50.74-42.32,80.39l-2.19-9.51-4.13-17.9s-12,9-24.67-4.65Z" transform="translate(-298.53 -295)" opacity="0.15"/><path d="M1284.9,1917.54c15,26.19,35.09,46.9,91.2,79.56l2.84-10.15,4.24-15.18s18.68,1.16,22.35-13.93a2,2,0,0,0,.06-.23,2.53,2.53,0,0,1-.12.23c-3.69,6.94-16.48,11.54-24.65,9.21l-3.48,16.7-1.24,6s-83-32.59-98.16-90.72C1277.94,1899,1280.39,1909.69,1284.9,1917.54Z" transform="translate(-298.53 -295)" opacity="0.15"/><path d="M822.26,1962.67l9.77,11.12,7.66,8.72,20.54,26.77,169.54,235.37c24,33.41,60,34.34,81.33,4.78l85.84-115.09-60.44-120.19L1068,2145.91l-163.45-206-2.77-3.47-.54-.22a2.09,2.09,0,0,0,.09-.37l-.16-.19s.33-1.1.86-3.19h0c.79-4.06,2-11.21,3.16-20.39,2.37-19.48,4.08-48-.86-75.34a11.46,11.46,0,0,0-15.84,10.39l-.73,16.08-1.18,26.15s-.14-.54-.4-1.5l0,2.82c-.2-.63-47.14-92.7-84.14-69.7C748.93,1854,792.83,1935.07,822.26,1962.67Z" transform="translate(-298.53 -295)" fill="#db965f"/><path d="M1207.34,1961.24s-41.47-52.17-138,145.76l100.6,121.61S1322.51,2038.64,1207.34,1961.24Z" transform="translate(-298.53 -295)" fill="#fff"/><path d="M1909.09,1912c-3.08,33.18-25.53,77.12-49.95,97.24l-67.93,175.28-19.86,48.27c-10.77,25.46-27.43,45.53-47.7,44.45a29.23,29.23,0,0,1-19.62-9.39c-9.73-7.16-31-27.72-35.68-33.23L1657.24,2221l.6,1.57-11.61-15-.06-.07L1632.63,2191l-4.63,4.52V2056.24a143.85,143.85,0,0,1,9-50.34c21.22,24.25,47.29,57.89,79.22,104.43l-7.66,7.35-2.13,2.05-4.66,4.46,16.59,29.38,16.22-37.88,54.7-122.65s-24.37-38.85-24.18-80.86c2.35-.12,4.73-.18,7.11-.18h11.21l9.17,30.62s4.58-12.7,15.61-30.62Z" transform="translate(-298.53 -295)" opacity="0.1"/><path d="M3429,2115v110.6l-3.65,1.42-.1-.44c-7.48,4.55-18.18,4.38-33.31-3.58l-77.71-92.47-29.47-27.4s1.73-2.34,4.37-6.3l-64.58-66.89s-96.42-33.83-92.62-107.13a47.47,47.47,0,0,1,1.14-10.81h77.24l9.69,9.24,2.65,2.53-4-11.77h23.24c.54,1,1.09,2,1.64,3.06,9.33,17.54,18.92,39.75,20.83,59.52.09,1,.17,1.9.23,2.85,0,0,7,25.06,34.09,42.85l17.38,15a40.41,40.41,0,0,0,.08-4.78s14.44,9.85,34.17,25c21.91,16.86,50.33,40.3,72.77,64.16Z" transform="translate(-298.53 -295)" opacity="0.1"/><rect x="1346.42" y="1627" width="1774" height="874" rx="187" fill="#829cf8"/><rect x="2144.94" y="1522" width="774" height="1674" rx="137" transform="translate(4592.42 -467.94) rotate(90)" fill="#0f31ac"/><path d="M2048.47,2466.15h-64.81l-19.42-88.4q-1.4-5.55-4.38-22.06t-4.37-27.62q-1.11,9-3.61,22.41t-4.92,24.64q-2.43,11.24-20.19,91H1862l-50.23-202.88h52.87L1886.66,2365q7.5,33.72,10.27,53.7,1.8-14.16,6.45-38.44t8.68-40.24l17.9-76.74h50.79l17.34,76.74q4.44,18.45,9,42.6t6.11,36.08q1.8-15.41,9.85-53.43l22.48-102h52.88Z" transform="translate(-298.53 -295)" fill="#040c2b"/><path d="M2245.11,2466.15H2124.65V2263.27h120.46v44h-65.64v31.91h60.78v44h-60.78v38.31h65.64Z" transform="translate(-298.53 -295)" fill="#040c2b"/><path d="M2280.63,2466.15V2263.27h54.82v158.61h78.12v44.27Z" transform="translate(-298.53 -295)" fill="#040c2b"/><path d="M2536.38,2305.31q-19.56,0-30.53,16t-11,44.2q0,58.56,44.55,58.56a91.19,91.19,0,0,0,26.09-3.75,258.39,258.39,0,0,0,25.39-9v46.35q-25.4,11.25-57.45,11.24-45.93,0-70.43-26.64t-24.49-77q0-31.5,11.87-55.37a84.94,84.94,0,0,1,34.13-36.7q22.27-12.84,52.39-12.84a144.27,144.27,0,0,1,62.86,14.3L2583,2317.8a190.51,190.51,0,0,0-22.48-8.88A78.71,78.71,0,0,0,2536.38,2305.31Z" transform="translate(-298.53 -295)" fill="#040c2b"/><path d="M2820.31,2364.43q0,51.21-25.12,77.85t-73.55,26.64q-47.73,0-73.2-26.78t-25.46-78q0-50.64,25.32-77.36t73.62-26.71q48.43,0,73.41,26.5T2820.31,2364.43Zm-139.61,0q0,58.84,40.94,58.84,20.82,0,30.88-14.29t10.06-44.55q0-30.39-10.2-44.89t-30.46-14.5Q2680.7,2305,2680.7,2364.43Z" transform="translate(-298.53 -295)" fill="#040c2b"/><path d="M2945.34,2466.15,2903.85,2320h-1.25q2.91,37.33,2.91,58v88.12h-48.57V2263.27h73l42.32,144h1.11l41.49-144H3088v202.88h-50.37v-89q0-6.94.21-15.41t1.87-41.49h-1.25l-40.93,145.85Z" transform="translate(-298.53 -295)" fill="#040c2b"/><path d="M3252.16,2466.15H3131.71V2263.27h120.45v44h-65.64v31.91h60.78v44h-60.78v38.31h65.64Z" transform="translate(-298.53 -295)" fill="#040c2b"/><path d="M2048.47,2455.15h-64.81l-19.42-88.4q-1.4-5.55-4.38-22.06t-4.37-27.62q-1.11,9-3.61,22.41t-4.92,24.64q-2.43,11.24-20.19,91H1862l-50.23-202.88h52.87L1886.66,2354q7.5,33.72,10.27,53.7,1.8-14.16,6.45-38.44t8.68-40.24l17.9-76.74h50.79l17.34,76.74q4.44,18.45,9,42.6t6.11,36.08q1.8-15.41,9.85-53.43l22.48-102h52.88Z" transform="translate(-298.53 -295)" fill="#fff"/><path d="M2245.11,2455.15H2124.65V2252.27h120.46v44h-65.64v31.91h60.78v44h-60.78v38.31h65.64Z" transform="translate(-298.53 -295)" fill="#fff"/><path d="M2280.63,2455.15V2252.27h54.82v158.61h78.12v44.27Z" transform="translate(-298.53 -295)" fill="#fff"/><path d="M2536.38,2294.31q-19.56,0-30.53,16t-11,44.2q0,58.56,44.55,58.56a91.19,91.19,0,0,0,26.09-3.75,258.39,258.39,0,0,0,25.39-9v46.35q-25.4,11.25-57.45,11.24-45.93,0-70.43-26.64t-24.49-77q0-31.5,11.87-55.37a84.94,84.94,0,0,1,34.13-36.7q22.27-12.84,52.39-12.84a144.27,144.27,0,0,1,62.86,14.3L2583,2306.8a190.51,190.51,0,0,0-22.48-8.88A78.71,78.71,0,0,0,2536.38,2294.31Z" transform="translate(-298.53 -295)" fill="#fff"/><path d="M2820.31,2353.43q0,51.21-25.12,77.85t-73.55,26.64q-47.73,0-73.2-26.78t-25.46-78q0-50.64,25.32-77.36t73.62-26.71q48.43,0,73.41,26.5T2820.31,2353.43Zm-139.61,0q0,58.84,40.94,58.84,20.82,0,30.88-14.29t10.06-44.55q0-30.39-10.2-44.89t-30.46-14.5Q2680.7,2294,2680.7,2353.43Z" transform="translate(-298.53 -295)" fill="#fff"/><path d="M2945.34,2455.15,2903.85,2309h-1.25q2.91,37.33,2.91,58v88.12h-48.57V2252.27h73l42.32,144h1.11l41.49-144H3088v202.88h-50.37v-89q0-6.94.21-15.41t1.87-41.49h-1.25l-40.93,145.85Z" transform="translate(-298.53 -295)" fill="#fff"/><path d="M3252.16,2455.15H3131.71V2252.27h120.45v44h-65.64v31.91h60.78v44h-60.78v38.31h65.64Z" transform="translate(-298.53 -295)" fill="#fff"/></g></svg>